%
M48
M72
T01C0.03200
T02C0.03937
T03C0.11024
%
T01
X13000Y54706
X23000Y54706
X33000Y54706
X43000Y54706
X53000Y54706
X63000Y54706
X73000Y54706
X83000Y54706
X93000Y54706
X103000Y54706
X113000Y54706
X123000Y54706
X133000Y54706
X143000Y54706
X143000Y114706
X133000Y114706
X123000Y114706
X113000Y114706
X103000Y114706
X93000Y114706
X83000Y114706
X73000Y114706
X63000Y114706
X53000Y114706
X43000Y114706
X33000Y114706
X23000Y114706
X13000Y114706
X46000Y147706
X56000Y147706
X66000Y147706
X76000Y147706
X86000Y147706
X96000Y147706
X106000Y147706
X116000Y147706
T02
X41866Y36328
X51866Y36328
X61866Y36328
X71866Y36328
X81866Y36328
X91866Y36328
X101866Y36328
X111866Y36328
X111866Y130816
X101866Y130816
X91866Y130816
X81866Y130816
X71866Y130816
X61866Y130816
X51866Y130816
X41866Y130816
T03
X25685Y83572
X128047Y83572
M30
