G75*
%MOIN*%
%OFA0B0*%
%FSLAX25Y25*%
%IPPOS*%
%LPD*%
%AMOC8*
5,1,8,0,0,1.08239X$1,22.5*
%
%ADD10C,0.00000*%
%ADD11C,0.05200*%
%ADD12C,0.05937*%
%ADD13R,0.03583X0.04803*%
%ADD14R,0.04803X0.03583*%
%ADD15OC8,0.06300*%
%ADD16R,0.03937X0.04331*%
%ADD17C,0.01200*%
%ADD18C,0.01000*%
%ADD19C,0.01600*%
D10*
X0006000Y0012706D02*
X0006000Y0154438D01*
X0147732Y0154438D01*
X0147732Y0012706D01*
X0006000Y0012706D01*
X0020173Y0083572D02*
X0020175Y0083720D01*
X0020181Y0083868D01*
X0020191Y0084016D01*
X0020205Y0084163D01*
X0020223Y0084310D01*
X0020244Y0084456D01*
X0020270Y0084602D01*
X0020300Y0084747D01*
X0020333Y0084891D01*
X0020371Y0085034D01*
X0020412Y0085176D01*
X0020457Y0085317D01*
X0020505Y0085457D01*
X0020558Y0085596D01*
X0020614Y0085733D01*
X0020674Y0085868D01*
X0020737Y0086002D01*
X0020804Y0086134D01*
X0020875Y0086264D01*
X0020949Y0086392D01*
X0021026Y0086518D01*
X0021107Y0086642D01*
X0021191Y0086764D01*
X0021278Y0086883D01*
X0021369Y0087000D01*
X0021463Y0087115D01*
X0021559Y0087227D01*
X0021659Y0087337D01*
X0021761Y0087443D01*
X0021867Y0087547D01*
X0021975Y0087648D01*
X0022086Y0087746D01*
X0022199Y0087842D01*
X0022315Y0087934D01*
X0022433Y0088023D01*
X0022554Y0088108D01*
X0022677Y0088191D01*
X0022802Y0088270D01*
X0022929Y0088346D01*
X0023058Y0088418D01*
X0023189Y0088487D01*
X0023322Y0088552D01*
X0023457Y0088613D01*
X0023593Y0088671D01*
X0023730Y0088726D01*
X0023869Y0088776D01*
X0024010Y0088823D01*
X0024151Y0088866D01*
X0024294Y0088906D01*
X0024438Y0088941D01*
X0024582Y0088973D01*
X0024728Y0089000D01*
X0024874Y0089024D01*
X0025021Y0089044D01*
X0025168Y0089060D01*
X0025315Y0089072D01*
X0025463Y0089080D01*
X0025611Y0089084D01*
X0025759Y0089084D01*
X0025907Y0089080D01*
X0026055Y0089072D01*
X0026202Y0089060D01*
X0026349Y0089044D01*
X0026496Y0089024D01*
X0026642Y0089000D01*
X0026788Y0088973D01*
X0026932Y0088941D01*
X0027076Y0088906D01*
X0027219Y0088866D01*
X0027360Y0088823D01*
X0027501Y0088776D01*
X0027640Y0088726D01*
X0027777Y0088671D01*
X0027913Y0088613D01*
X0028048Y0088552D01*
X0028181Y0088487D01*
X0028312Y0088418D01*
X0028441Y0088346D01*
X0028568Y0088270D01*
X0028693Y0088191D01*
X0028816Y0088108D01*
X0028937Y0088023D01*
X0029055Y0087934D01*
X0029171Y0087842D01*
X0029284Y0087746D01*
X0029395Y0087648D01*
X0029503Y0087547D01*
X0029609Y0087443D01*
X0029711Y0087337D01*
X0029811Y0087227D01*
X0029907Y0087115D01*
X0030001Y0087000D01*
X0030092Y0086883D01*
X0030179Y0086764D01*
X0030263Y0086642D01*
X0030344Y0086518D01*
X0030421Y0086392D01*
X0030495Y0086264D01*
X0030566Y0086134D01*
X0030633Y0086002D01*
X0030696Y0085868D01*
X0030756Y0085733D01*
X0030812Y0085596D01*
X0030865Y0085457D01*
X0030913Y0085317D01*
X0030958Y0085176D01*
X0030999Y0085034D01*
X0031037Y0084891D01*
X0031070Y0084747D01*
X0031100Y0084602D01*
X0031126Y0084456D01*
X0031147Y0084310D01*
X0031165Y0084163D01*
X0031179Y0084016D01*
X0031189Y0083868D01*
X0031195Y0083720D01*
X0031197Y0083572D01*
X0031195Y0083424D01*
X0031189Y0083276D01*
X0031179Y0083128D01*
X0031165Y0082981D01*
X0031147Y0082834D01*
X0031126Y0082688D01*
X0031100Y0082542D01*
X0031070Y0082397D01*
X0031037Y0082253D01*
X0030999Y0082110D01*
X0030958Y0081968D01*
X0030913Y0081827D01*
X0030865Y0081687D01*
X0030812Y0081548D01*
X0030756Y0081411D01*
X0030696Y0081276D01*
X0030633Y0081142D01*
X0030566Y0081010D01*
X0030495Y0080880D01*
X0030421Y0080752D01*
X0030344Y0080626D01*
X0030263Y0080502D01*
X0030179Y0080380D01*
X0030092Y0080261D01*
X0030001Y0080144D01*
X0029907Y0080029D01*
X0029811Y0079917D01*
X0029711Y0079807D01*
X0029609Y0079701D01*
X0029503Y0079597D01*
X0029395Y0079496D01*
X0029284Y0079398D01*
X0029171Y0079302D01*
X0029055Y0079210D01*
X0028937Y0079121D01*
X0028816Y0079036D01*
X0028693Y0078953D01*
X0028568Y0078874D01*
X0028441Y0078798D01*
X0028312Y0078726D01*
X0028181Y0078657D01*
X0028048Y0078592D01*
X0027913Y0078531D01*
X0027777Y0078473D01*
X0027640Y0078418D01*
X0027501Y0078368D01*
X0027360Y0078321D01*
X0027219Y0078278D01*
X0027076Y0078238D01*
X0026932Y0078203D01*
X0026788Y0078171D01*
X0026642Y0078144D01*
X0026496Y0078120D01*
X0026349Y0078100D01*
X0026202Y0078084D01*
X0026055Y0078072D01*
X0025907Y0078064D01*
X0025759Y0078060D01*
X0025611Y0078060D01*
X0025463Y0078064D01*
X0025315Y0078072D01*
X0025168Y0078084D01*
X0025021Y0078100D01*
X0024874Y0078120D01*
X0024728Y0078144D01*
X0024582Y0078171D01*
X0024438Y0078203D01*
X0024294Y0078238D01*
X0024151Y0078278D01*
X0024010Y0078321D01*
X0023869Y0078368D01*
X0023730Y0078418D01*
X0023593Y0078473D01*
X0023457Y0078531D01*
X0023322Y0078592D01*
X0023189Y0078657D01*
X0023058Y0078726D01*
X0022929Y0078798D01*
X0022802Y0078874D01*
X0022677Y0078953D01*
X0022554Y0079036D01*
X0022433Y0079121D01*
X0022315Y0079210D01*
X0022199Y0079302D01*
X0022086Y0079398D01*
X0021975Y0079496D01*
X0021867Y0079597D01*
X0021761Y0079701D01*
X0021659Y0079807D01*
X0021559Y0079917D01*
X0021463Y0080029D01*
X0021369Y0080144D01*
X0021278Y0080261D01*
X0021191Y0080380D01*
X0021107Y0080502D01*
X0021026Y0080626D01*
X0020949Y0080752D01*
X0020875Y0080880D01*
X0020804Y0081010D01*
X0020737Y0081142D01*
X0020674Y0081276D01*
X0020614Y0081411D01*
X0020558Y0081548D01*
X0020505Y0081687D01*
X0020457Y0081827D01*
X0020412Y0081968D01*
X0020371Y0082110D01*
X0020333Y0082253D01*
X0020300Y0082397D01*
X0020270Y0082542D01*
X0020244Y0082688D01*
X0020223Y0082834D01*
X0020205Y0082981D01*
X0020191Y0083128D01*
X0020181Y0083276D01*
X0020175Y0083424D01*
X0020173Y0083572D01*
X0122535Y0083572D02*
X0122537Y0083720D01*
X0122543Y0083868D01*
X0122553Y0084016D01*
X0122567Y0084163D01*
X0122585Y0084310D01*
X0122606Y0084456D01*
X0122632Y0084602D01*
X0122662Y0084747D01*
X0122695Y0084891D01*
X0122733Y0085034D01*
X0122774Y0085176D01*
X0122819Y0085317D01*
X0122867Y0085457D01*
X0122920Y0085596D01*
X0122976Y0085733D01*
X0123036Y0085868D01*
X0123099Y0086002D01*
X0123166Y0086134D01*
X0123237Y0086264D01*
X0123311Y0086392D01*
X0123388Y0086518D01*
X0123469Y0086642D01*
X0123553Y0086764D01*
X0123640Y0086883D01*
X0123731Y0087000D01*
X0123825Y0087115D01*
X0123921Y0087227D01*
X0124021Y0087337D01*
X0124123Y0087443D01*
X0124229Y0087547D01*
X0124337Y0087648D01*
X0124448Y0087746D01*
X0124561Y0087842D01*
X0124677Y0087934D01*
X0124795Y0088023D01*
X0124916Y0088108D01*
X0125039Y0088191D01*
X0125164Y0088270D01*
X0125291Y0088346D01*
X0125420Y0088418D01*
X0125551Y0088487D01*
X0125684Y0088552D01*
X0125819Y0088613D01*
X0125955Y0088671D01*
X0126092Y0088726D01*
X0126231Y0088776D01*
X0126372Y0088823D01*
X0126513Y0088866D01*
X0126656Y0088906D01*
X0126800Y0088941D01*
X0126944Y0088973D01*
X0127090Y0089000D01*
X0127236Y0089024D01*
X0127383Y0089044D01*
X0127530Y0089060D01*
X0127677Y0089072D01*
X0127825Y0089080D01*
X0127973Y0089084D01*
X0128121Y0089084D01*
X0128269Y0089080D01*
X0128417Y0089072D01*
X0128564Y0089060D01*
X0128711Y0089044D01*
X0128858Y0089024D01*
X0129004Y0089000D01*
X0129150Y0088973D01*
X0129294Y0088941D01*
X0129438Y0088906D01*
X0129581Y0088866D01*
X0129722Y0088823D01*
X0129863Y0088776D01*
X0130002Y0088726D01*
X0130139Y0088671D01*
X0130275Y0088613D01*
X0130410Y0088552D01*
X0130543Y0088487D01*
X0130674Y0088418D01*
X0130803Y0088346D01*
X0130930Y0088270D01*
X0131055Y0088191D01*
X0131178Y0088108D01*
X0131299Y0088023D01*
X0131417Y0087934D01*
X0131533Y0087842D01*
X0131646Y0087746D01*
X0131757Y0087648D01*
X0131865Y0087547D01*
X0131971Y0087443D01*
X0132073Y0087337D01*
X0132173Y0087227D01*
X0132269Y0087115D01*
X0132363Y0087000D01*
X0132454Y0086883D01*
X0132541Y0086764D01*
X0132625Y0086642D01*
X0132706Y0086518D01*
X0132783Y0086392D01*
X0132857Y0086264D01*
X0132928Y0086134D01*
X0132995Y0086002D01*
X0133058Y0085868D01*
X0133118Y0085733D01*
X0133174Y0085596D01*
X0133227Y0085457D01*
X0133275Y0085317D01*
X0133320Y0085176D01*
X0133361Y0085034D01*
X0133399Y0084891D01*
X0133432Y0084747D01*
X0133462Y0084602D01*
X0133488Y0084456D01*
X0133509Y0084310D01*
X0133527Y0084163D01*
X0133541Y0084016D01*
X0133551Y0083868D01*
X0133557Y0083720D01*
X0133559Y0083572D01*
X0133557Y0083424D01*
X0133551Y0083276D01*
X0133541Y0083128D01*
X0133527Y0082981D01*
X0133509Y0082834D01*
X0133488Y0082688D01*
X0133462Y0082542D01*
X0133432Y0082397D01*
X0133399Y0082253D01*
X0133361Y0082110D01*
X0133320Y0081968D01*
X0133275Y0081827D01*
X0133227Y0081687D01*
X0133174Y0081548D01*
X0133118Y0081411D01*
X0133058Y0081276D01*
X0132995Y0081142D01*
X0132928Y0081010D01*
X0132857Y0080880D01*
X0132783Y0080752D01*
X0132706Y0080626D01*
X0132625Y0080502D01*
X0132541Y0080380D01*
X0132454Y0080261D01*
X0132363Y0080144D01*
X0132269Y0080029D01*
X0132173Y0079917D01*
X0132073Y0079807D01*
X0131971Y0079701D01*
X0131865Y0079597D01*
X0131757Y0079496D01*
X0131646Y0079398D01*
X0131533Y0079302D01*
X0131417Y0079210D01*
X0131299Y0079121D01*
X0131178Y0079036D01*
X0131055Y0078953D01*
X0130930Y0078874D01*
X0130803Y0078798D01*
X0130674Y0078726D01*
X0130543Y0078657D01*
X0130410Y0078592D01*
X0130275Y0078531D01*
X0130139Y0078473D01*
X0130002Y0078418D01*
X0129863Y0078368D01*
X0129722Y0078321D01*
X0129581Y0078278D01*
X0129438Y0078238D01*
X0129294Y0078203D01*
X0129150Y0078171D01*
X0129004Y0078144D01*
X0128858Y0078120D01*
X0128711Y0078100D01*
X0128564Y0078084D01*
X0128417Y0078072D01*
X0128269Y0078064D01*
X0128121Y0078060D01*
X0127973Y0078060D01*
X0127825Y0078064D01*
X0127677Y0078072D01*
X0127530Y0078084D01*
X0127383Y0078100D01*
X0127236Y0078120D01*
X0127090Y0078144D01*
X0126944Y0078171D01*
X0126800Y0078203D01*
X0126656Y0078238D01*
X0126513Y0078278D01*
X0126372Y0078321D01*
X0126231Y0078368D01*
X0126092Y0078418D01*
X0125955Y0078473D01*
X0125819Y0078531D01*
X0125684Y0078592D01*
X0125551Y0078657D01*
X0125420Y0078726D01*
X0125291Y0078798D01*
X0125164Y0078874D01*
X0125039Y0078953D01*
X0124916Y0079036D01*
X0124795Y0079121D01*
X0124677Y0079210D01*
X0124561Y0079302D01*
X0124448Y0079398D01*
X0124337Y0079496D01*
X0124229Y0079597D01*
X0124123Y0079701D01*
X0124021Y0079807D01*
X0123921Y0079917D01*
X0123825Y0080029D01*
X0123731Y0080144D01*
X0123640Y0080261D01*
X0123553Y0080380D01*
X0123469Y0080502D01*
X0123388Y0080626D01*
X0123311Y0080752D01*
X0123237Y0080880D01*
X0123166Y0081010D01*
X0123099Y0081142D01*
X0123036Y0081276D01*
X0122976Y0081411D01*
X0122920Y0081548D01*
X0122867Y0081687D01*
X0122819Y0081827D01*
X0122774Y0081968D01*
X0122733Y0082110D01*
X0122695Y0082253D01*
X0122662Y0082397D01*
X0122632Y0082542D01*
X0122606Y0082688D01*
X0122585Y0082834D01*
X0122567Y0082981D01*
X0122553Y0083128D01*
X0122543Y0083276D01*
X0122537Y0083424D01*
X0122535Y0083572D01*
D11*
X0123000Y0057306D02*
X0123000Y0052106D01*
X0113000Y0052106D02*
X0113000Y0057306D01*
X0103000Y0057306D02*
X0103000Y0052106D01*
X0093000Y0052106D02*
X0093000Y0057306D01*
X0083000Y0057306D02*
X0083000Y0052106D01*
X0073000Y0052106D02*
X0073000Y0057306D01*
X0063000Y0057306D02*
X0063000Y0052106D01*
X0053000Y0052106D02*
X0053000Y0057306D01*
X0043000Y0057306D02*
X0043000Y0052106D01*
X0033000Y0052106D02*
X0033000Y0057306D01*
X0023000Y0057306D02*
X0023000Y0052106D01*
X0013000Y0052106D02*
X0013000Y0057306D01*
X0013000Y0112106D02*
X0013000Y0117306D01*
X0023000Y0117306D02*
X0023000Y0112106D01*
X0033000Y0112106D02*
X0033000Y0117306D01*
X0043000Y0117306D02*
X0043000Y0112106D01*
X0053000Y0112106D02*
X0053000Y0117306D01*
X0063000Y0117306D02*
X0063000Y0112106D01*
X0073000Y0112106D02*
X0073000Y0117306D01*
X0083000Y0117306D02*
X0083000Y0112106D01*
X0093000Y0112106D02*
X0093000Y0117306D01*
X0103000Y0117306D02*
X0103000Y0112106D01*
X0113000Y0112106D02*
X0113000Y0117306D01*
X0123000Y0117306D02*
X0123000Y0112106D01*
X0133000Y0112106D02*
X0133000Y0117306D01*
X0143000Y0117306D02*
X0143000Y0112106D01*
X0143000Y0057306D02*
X0143000Y0052106D01*
X0133000Y0052106D02*
X0133000Y0057306D01*
D12*
X0111866Y0039296D02*
X0111866Y0033359D01*
X0101866Y0033359D02*
X0101866Y0039296D01*
X0091866Y0039296D02*
X0091866Y0033359D01*
X0081866Y0033359D02*
X0081866Y0039296D01*
X0071866Y0039296D02*
X0071866Y0033359D01*
X0061866Y0033359D02*
X0061866Y0039296D01*
X0051866Y0039296D02*
X0051866Y0033359D01*
X0041866Y0033359D02*
X0041866Y0039296D01*
X0041866Y0127847D02*
X0041866Y0133784D01*
X0051866Y0133784D02*
X0051866Y0127847D01*
X0061866Y0127847D02*
X0061866Y0133784D01*
X0071866Y0133784D02*
X0071866Y0127847D01*
X0081866Y0127847D02*
X0081866Y0133784D01*
X0091866Y0133784D02*
X0091866Y0127847D01*
X0101866Y0127847D02*
X0101866Y0133784D01*
X0111866Y0133784D02*
X0111866Y0127847D01*
D13*
X0109110Y0102548D03*
X0098224Y0102706D03*
X0084110Y0102548D03*
X0046890Y0101863D03*
X0032776Y0101706D03*
X0025890Y0101863D03*
X0011776Y0101706D03*
X0123224Y0102706D03*
X0128110Y0065548D03*
X0142224Y0065706D03*
D14*
X0103000Y0064481D03*
X0102843Y0078595D03*
X0062843Y0078595D03*
X0063000Y0064481D03*
X0043000Y0064481D03*
X0042843Y0078595D03*
D15*
X0046000Y0147706D03*
X0056000Y0147706D03*
X0066000Y0147706D03*
X0076000Y0147706D03*
X0086000Y0147706D03*
X0096000Y0147706D03*
X0106000Y0147706D03*
X0116000Y0147706D03*
D16*
X0025346Y0134706D03*
X0018654Y0134706D03*
X0018654Y0125706D03*
X0025346Y0125706D03*
D17*
X0018654Y0125706D02*
X0018600Y0126106D01*
X0018600Y0134656D01*
X0018654Y0134706D01*
X0019050Y0135106D01*
X0036600Y0152656D01*
X0090600Y0152656D01*
X0090600Y0145456D01*
X0087450Y0142306D01*
X0087450Y0127006D01*
X0083400Y0122956D01*
X0083400Y0114856D01*
X0083000Y0114706D01*
X0105900Y0147706D02*
X0106000Y0147706D01*
X0105900Y0147706D02*
X0100950Y0152656D01*
X0090600Y0152656D01*
X0096450Y0174123D02*
X0096450Y0174256D01*
D18*
X0096000Y0147706D02*
X0096000Y0146806D01*
X0111750Y0131056D01*
X0111866Y0130816D01*
X0112200Y0130606D01*
X0125250Y0130606D01*
X0141000Y0114856D01*
X0142800Y0114856D01*
X0143000Y0114706D01*
X0133000Y0114706D02*
X0132900Y0114406D01*
X0123450Y0104956D01*
X0123450Y0102706D01*
X0123224Y0102706D01*
X0117150Y0110356D02*
X0117150Y0118906D01*
X0112650Y0123406D01*
X0109500Y0123406D01*
X0102300Y0130606D01*
X0101866Y0130816D01*
X0096900Y0125656D02*
X0091950Y0130606D01*
X0091866Y0130816D01*
X0096900Y0125656D02*
X0096900Y0110356D01*
X0095100Y0108556D01*
X0095100Y0099556D01*
X0096000Y0098656D01*
X0100500Y0098656D01*
X0104100Y0102256D01*
X0109050Y0102256D01*
X0109110Y0102548D01*
X0113100Y0106306D02*
X0117150Y0110356D01*
X0113100Y0106306D02*
X0113100Y0077956D01*
X0125250Y0065806D01*
X0127950Y0065806D01*
X0128110Y0065548D01*
X0131100Y0054556D02*
X0113100Y0036556D01*
X0112200Y0036556D01*
X0111866Y0036328D01*
X0102300Y0036556D02*
X0112650Y0046906D01*
X0112650Y0054556D01*
X0113000Y0054706D01*
X0103200Y0055006D02*
X0103000Y0054706D01*
X0103200Y0055006D02*
X0103200Y0064456D01*
X0103000Y0064481D01*
X0102750Y0070306D02*
X0096900Y0064456D01*
X0096900Y0041506D01*
X0091950Y0036556D01*
X0091866Y0036328D01*
X0082050Y0036556D02*
X0092850Y0047356D01*
X0092850Y0054556D01*
X0093000Y0054706D01*
X0102750Y0070306D02*
X0102750Y0078406D01*
X0102843Y0078595D01*
X0100950Y0102706D02*
X0098224Y0102706D01*
X0100950Y0102706D02*
X0112650Y0114406D01*
X0113000Y0114706D01*
X0083850Y0105406D02*
X0083850Y0102706D01*
X0084110Y0102548D01*
X0083850Y0105406D02*
X0077100Y0112156D01*
X0077100Y0125656D01*
X0072150Y0130606D01*
X0071866Y0130816D01*
X0067200Y0127006D02*
X0067200Y0139156D01*
X0075750Y0147706D01*
X0076000Y0147706D01*
X0061866Y0130816D02*
X0061800Y0130606D01*
X0054600Y0123406D01*
X0053250Y0123406D01*
X0044700Y0114856D01*
X0043350Y0114856D01*
X0043000Y0114706D01*
X0038850Y0118906D02*
X0038850Y0109906D01*
X0046500Y0102256D01*
X0046890Y0101863D01*
X0033000Y0101806D02*
X0033000Y0114706D01*
X0028950Y0112156D02*
X0028950Y0118906D01*
X0040650Y0130606D01*
X0041550Y0130606D01*
X0041866Y0130816D01*
X0043350Y0123406D02*
X0044250Y0123406D01*
X0051450Y0130606D01*
X0051866Y0130816D01*
X0043350Y0123406D02*
X0038850Y0118906D01*
X0028950Y0112156D02*
X0026250Y0109456D01*
X0026250Y0102256D01*
X0025890Y0101863D01*
X0032776Y0101706D02*
X0033000Y0101806D01*
X0013000Y0114706D02*
X0012750Y0114406D01*
X0011850Y0113506D01*
X0011850Y0101806D01*
X0011776Y0101706D01*
X0025346Y0125706D02*
X0025350Y0126106D01*
X0028050Y0126106D01*
X0045150Y0143206D01*
X0051450Y0143206D01*
X0055950Y0147706D01*
X0056000Y0147706D01*
X0046000Y0147706D02*
X0045600Y0147706D01*
X0033000Y0135106D01*
X0025350Y0135106D01*
X0025346Y0134706D01*
X0063150Y0122956D02*
X0063150Y0114856D01*
X0063000Y0114706D01*
X0063150Y0122956D02*
X0067200Y0127006D01*
X0062843Y0078595D02*
X0063150Y0078406D01*
X0063150Y0070756D01*
X0069000Y0064906D01*
X0069000Y0039256D01*
X0071700Y0036556D01*
X0071866Y0036328D01*
X0061866Y0036328D02*
X0061800Y0036556D01*
X0059100Y0039256D01*
X0059100Y0056806D01*
X0042900Y0073006D01*
X0042900Y0078406D01*
X0042843Y0078595D01*
X0043000Y0064481D02*
X0042900Y0064456D01*
X0042900Y0055006D01*
X0043000Y0054706D01*
X0044250Y0043756D02*
X0035700Y0043756D01*
X0024900Y0054556D01*
X0023100Y0054556D01*
X0023000Y0054706D01*
X0015000Y0054556D02*
X0033000Y0036556D01*
X0041550Y0036556D01*
X0041866Y0036328D01*
X0044250Y0043756D02*
X0051450Y0036556D01*
X0051866Y0036328D01*
X0063000Y0054706D02*
X0063150Y0055006D01*
X0063150Y0064456D01*
X0063000Y0064481D01*
X0082050Y0036556D02*
X0081866Y0036328D01*
X0101866Y0036328D02*
X0102300Y0036556D01*
X0131100Y0054556D02*
X0132900Y0054556D01*
X0133000Y0054706D01*
X0142350Y0055456D02*
X0142800Y0055006D01*
X0143000Y0054706D01*
X0142350Y0055456D02*
X0142350Y0065356D01*
X0142224Y0065706D01*
X0015000Y0054556D02*
X0013200Y0054556D01*
X0013000Y0054706D01*
D19*
X0006000Y0011106D02*
X0006000Y0008769D01*
X0153638Y0008769D01*
X0153638Y0174123D01*
X0006000Y0174123D01*
X0006000Y0156038D01*
X0148395Y0156038D01*
X0149332Y0155101D01*
X0149332Y0012043D01*
X0148395Y0011106D01*
X0006000Y0011106D01*
X0006000Y0009508D02*
X0153638Y0009508D01*
X0153638Y0011107D02*
X0148397Y0011107D01*
X0149332Y0012706D02*
X0153638Y0012706D01*
X0153638Y0014304D02*
X0149332Y0014304D01*
X0149332Y0015903D02*
X0153638Y0015903D01*
X0153638Y0017501D02*
X0149332Y0017501D01*
X0149332Y0019100D02*
X0153638Y0019100D01*
X0153638Y0020698D02*
X0149332Y0020698D01*
X0149332Y0022297D02*
X0153638Y0022297D01*
X0153638Y0023895D02*
X0149332Y0023895D01*
X0149332Y0025494D02*
X0153638Y0025494D01*
X0153638Y0027092D02*
X0149332Y0027092D01*
X0149332Y0028691D02*
X0153638Y0028691D01*
X0153638Y0030289D02*
X0149332Y0030289D01*
X0149332Y0031888D02*
X0153638Y0031888D01*
X0153638Y0033486D02*
X0149332Y0033486D01*
X0149332Y0035085D02*
X0153638Y0035085D01*
X0153638Y0036683D02*
X0149332Y0036683D01*
X0149332Y0038282D02*
X0153638Y0038282D01*
X0153638Y0039880D02*
X0149332Y0039880D01*
X0149332Y0041479D02*
X0153638Y0041479D01*
X0153638Y0043077D02*
X0149332Y0043077D01*
X0149332Y0044676D02*
X0153638Y0044676D01*
X0153638Y0046274D02*
X0149332Y0046274D01*
X0149332Y0047873D02*
X0153638Y0047873D01*
X0153638Y0049471D02*
X0149332Y0049471D01*
X0149332Y0051070D02*
X0153638Y0051070D01*
X0153638Y0052668D02*
X0149332Y0052668D01*
X0149332Y0054267D02*
X0153638Y0054267D01*
X0153638Y0055865D02*
X0149332Y0055865D01*
X0149332Y0057464D02*
X0153638Y0057464D01*
X0153638Y0059062D02*
X0149332Y0059062D01*
X0149332Y0060661D02*
X0153638Y0060661D01*
X0153638Y0062259D02*
X0149332Y0062259D01*
X0149332Y0063858D02*
X0153638Y0063858D01*
X0153638Y0065456D02*
X0149332Y0065456D01*
X0149332Y0067055D02*
X0153638Y0067055D01*
X0153638Y0068653D02*
X0149332Y0068653D01*
X0149332Y0070252D02*
X0153638Y0070252D01*
X0153638Y0071850D02*
X0149332Y0071850D01*
X0149332Y0073449D02*
X0153638Y0073449D01*
X0153638Y0075047D02*
X0149332Y0075047D01*
X0149332Y0076646D02*
X0153638Y0076646D01*
X0153638Y0078244D02*
X0149332Y0078244D01*
X0149332Y0079843D02*
X0153638Y0079843D01*
X0153638Y0081441D02*
X0149332Y0081441D01*
X0149332Y0083040D02*
X0153638Y0083040D01*
X0153638Y0084639D02*
X0149332Y0084639D01*
X0149332Y0086237D02*
X0153638Y0086237D01*
X0153638Y0087836D02*
X0149332Y0087836D01*
X0149332Y0089434D02*
X0153638Y0089434D01*
X0153638Y0091033D02*
X0149332Y0091033D01*
X0149332Y0092631D02*
X0153638Y0092631D01*
X0153638Y0094230D02*
X0149332Y0094230D01*
X0149332Y0095828D02*
X0153638Y0095828D01*
X0153638Y0097427D02*
X0149332Y0097427D01*
X0149332Y0099025D02*
X0153638Y0099025D01*
X0153638Y0100624D02*
X0149332Y0100624D01*
X0149332Y0102222D02*
X0153638Y0102222D01*
X0153638Y0103821D02*
X0149332Y0103821D01*
X0149332Y0105419D02*
X0153638Y0105419D01*
X0153638Y0107018D02*
X0149332Y0107018D01*
X0149332Y0108616D02*
X0153638Y0108616D01*
X0153638Y0110215D02*
X0149332Y0110215D01*
X0149332Y0111813D02*
X0153638Y0111813D01*
X0153638Y0113412D02*
X0149332Y0113412D01*
X0149332Y0115010D02*
X0153638Y0115010D01*
X0153638Y0116609D02*
X0149332Y0116609D01*
X0149332Y0118207D02*
X0153638Y0118207D01*
X0153638Y0119806D02*
X0149332Y0119806D01*
X0149332Y0121404D02*
X0153638Y0121404D01*
X0153638Y0123003D02*
X0149332Y0123003D01*
X0149332Y0124601D02*
X0153638Y0124601D01*
X0153638Y0126200D02*
X0149332Y0126200D01*
X0149332Y0127798D02*
X0153638Y0127798D01*
X0153638Y0129397D02*
X0149332Y0129397D01*
X0149332Y0130995D02*
X0153638Y0130995D01*
X0153638Y0132594D02*
X0149332Y0132594D01*
X0149332Y0134192D02*
X0153638Y0134192D01*
X0153638Y0135791D02*
X0149332Y0135791D01*
X0149332Y0137389D02*
X0153638Y0137389D01*
X0153638Y0138988D02*
X0149332Y0138988D01*
X0149332Y0140586D02*
X0153638Y0140586D01*
X0153638Y0142185D02*
X0149332Y0142185D01*
X0149332Y0143783D02*
X0153638Y0143783D01*
X0153638Y0145382D02*
X0149332Y0145382D01*
X0149332Y0146980D02*
X0153638Y0146980D01*
X0153638Y0148579D02*
X0149332Y0148579D01*
X0149332Y0150177D02*
X0153638Y0150177D01*
X0153638Y0151776D02*
X0149332Y0151776D01*
X0149332Y0153375D02*
X0153638Y0153375D01*
X0153638Y0154973D02*
X0149332Y0154973D01*
X0146132Y0152838D02*
X0146132Y0120113D01*
X0145379Y0120866D01*
X0143835Y0121505D01*
X0142165Y0121505D01*
X0140621Y0120866D01*
X0139439Y0119685D01*
X0139352Y0119473D01*
X0127350Y0131475D01*
X0126120Y0132705D01*
X0116435Y0132705D01*
X0116435Y0134693D01*
X0115739Y0136372D01*
X0114454Y0137657D01*
X0112775Y0138353D01*
X0110957Y0138353D01*
X0109278Y0137657D01*
X0108698Y0137077D01*
X0100394Y0145382D01*
X0101606Y0145382D01*
X0101250Y0145738D02*
X0104032Y0142956D01*
X0107968Y0142956D01*
X0110750Y0145738D01*
X0110750Y0149673D01*
X0107968Y0152455D01*
X0104261Y0152455D01*
X0103879Y0152838D01*
X0146132Y0152838D01*
X0146132Y0151776D02*
X0118647Y0151776D01*
X0117968Y0152455D02*
X0114032Y0152455D01*
X0111250Y0149673D01*
X0111250Y0145738D01*
X0114032Y0142956D01*
X0117968Y0142956D01*
X0120750Y0145738D01*
X0120750Y0149673D01*
X0117968Y0152455D01*
X0120246Y0150177D02*
X0146132Y0150177D01*
X0146132Y0148579D02*
X0120750Y0148579D01*
X0120750Y0146980D02*
X0146132Y0146980D01*
X0146132Y0145382D02*
X0120394Y0145382D01*
X0118795Y0143783D02*
X0146132Y0143783D01*
X0146132Y0142185D02*
X0103590Y0142185D01*
X0103205Y0143783D02*
X0101992Y0143783D01*
X0101250Y0145738D02*
X0101250Y0149244D01*
X0100039Y0150456D01*
X0099967Y0150456D01*
X0100750Y0149673D01*
X0100750Y0145738D01*
X0100394Y0145382D01*
X0100750Y0146980D02*
X0101250Y0146980D01*
X0101250Y0148579D02*
X0100750Y0148579D01*
X0100317Y0150177D02*
X0100246Y0150177D01*
X0096880Y0142956D02*
X0094032Y0142956D01*
X0092622Y0144366D01*
X0091511Y0143256D01*
X0089650Y0141394D01*
X0089650Y0137811D01*
X0090957Y0138353D01*
X0092775Y0138353D01*
X0094454Y0137657D01*
X0095739Y0136372D01*
X0096435Y0134693D01*
X0096435Y0129091D01*
X0097298Y0128228D01*
X0097298Y0134693D01*
X0097993Y0136372D01*
X0099278Y0137657D01*
X0100957Y0138353D01*
X0101483Y0138353D01*
X0096880Y0142956D01*
X0097651Y0142185D02*
X0090441Y0142185D01*
X0089650Y0140586D02*
X0099249Y0140586D01*
X0100848Y0138988D02*
X0089650Y0138988D01*
X0092039Y0143783D02*
X0093205Y0143783D01*
X0094722Y0137389D02*
X0099010Y0137389D01*
X0097752Y0135791D02*
X0095980Y0135791D01*
X0096435Y0134192D02*
X0097298Y0134192D01*
X0097298Y0132594D02*
X0096435Y0132594D01*
X0096435Y0130995D02*
X0097298Y0130995D01*
X0097298Y0129397D02*
X0096435Y0129397D01*
X0094800Y0124320D02*
X0094800Y0121106D01*
X0093835Y0121505D01*
X0092165Y0121505D01*
X0090621Y0120866D01*
X0089439Y0119685D01*
X0088800Y0118141D01*
X0088800Y0111270D01*
X0089439Y0109726D01*
X0090621Y0108545D01*
X0092165Y0107906D01*
X0093000Y0107906D01*
X0093000Y0098686D01*
X0094230Y0097456D01*
X0095130Y0096556D01*
X0101370Y0096556D01*
X0102600Y0097786D01*
X0104970Y0100156D01*
X0105719Y0100156D01*
X0105719Y0099484D01*
X0106656Y0098546D01*
X0111000Y0098546D01*
X0111000Y0077086D01*
X0112230Y0075856D01*
X0124380Y0063706D01*
X0124719Y0063706D01*
X0124719Y0062484D01*
X0125656Y0061546D01*
X0130564Y0061546D01*
X0131502Y0062484D01*
X0131502Y0068612D01*
X0130892Y0069222D01*
X0132621Y0069496D01*
X0136746Y0071598D01*
X0136746Y0071598D01*
X0140021Y0074872D01*
X0140021Y0074872D01*
X0142123Y0078998D01*
X0142123Y0078998D01*
X0142847Y0083572D01*
X0142123Y0088145D01*
X0140021Y0092271D01*
X0140021Y0092271D01*
X0140021Y0092271D01*
X0136746Y0095545D01*
X0132621Y0097647D01*
X0132621Y0097647D01*
X0128047Y0098372D01*
X0123474Y0097647D01*
X0119348Y0095545D01*
X0116074Y0092271D01*
X0116074Y0092271D01*
X0115200Y0090556D01*
X0115200Y0105436D01*
X0118020Y0108256D01*
X0119250Y0109486D01*
X0119250Y0110184D01*
X0119439Y0109726D01*
X0120621Y0108545D01*
X0122165Y0107906D01*
X0123430Y0107906D01*
X0122232Y0106707D01*
X0120770Y0106707D01*
X0119833Y0105770D01*
X0119833Y0099641D01*
X0120770Y0098704D01*
X0125678Y0098704D01*
X0126616Y0099641D01*
X0126616Y0105151D01*
X0130315Y0108851D01*
X0130621Y0108545D01*
X0132165Y0107906D01*
X0133835Y0107906D01*
X0135379Y0108545D01*
X0136561Y0109726D01*
X0137200Y0111270D01*
X0137200Y0115686D01*
X0138800Y0114086D01*
X0138800Y0111270D01*
X0139439Y0109726D01*
X0140621Y0108545D01*
X0142165Y0107906D01*
X0143835Y0107906D01*
X0145379Y0108545D01*
X0146132Y0109298D01*
X0146132Y0060113D01*
X0145379Y0060866D01*
X0144450Y0061251D01*
X0144450Y0061704D01*
X0144678Y0061704D01*
X0145616Y0062641D01*
X0145616Y0068770D01*
X0144678Y0069707D01*
X0139770Y0069707D01*
X0138833Y0068770D01*
X0138833Y0062641D01*
X0139770Y0061704D01*
X0140250Y0061704D01*
X0140250Y0060495D01*
X0139439Y0059685D01*
X0138800Y0058141D01*
X0138800Y0051270D01*
X0139439Y0049726D01*
X0140621Y0048545D01*
X0142165Y0047906D01*
X0143835Y0047906D01*
X0145379Y0048545D01*
X0146132Y0049298D01*
X0146132Y0014305D01*
X0007600Y0014305D01*
X0007600Y0152838D01*
X0033671Y0152838D01*
X0019304Y0138471D01*
X0016022Y0138471D01*
X0015085Y0137534D01*
X0015085Y0131877D01*
X0016022Y0130940D01*
X0016400Y0130940D01*
X0016400Y0129471D01*
X0016022Y0129471D01*
X0015085Y0128534D01*
X0015085Y0122877D01*
X0016022Y0121940D01*
X0021285Y0121940D01*
X0022000Y0122655D01*
X0022715Y0121940D01*
X0027978Y0121940D01*
X0028915Y0122877D01*
X0028915Y0124006D01*
X0028920Y0124006D01*
X0037298Y0132383D01*
X0037298Y0130223D01*
X0026850Y0119775D01*
X0026850Y0118986D01*
X0026561Y0119685D01*
X0025379Y0120866D01*
X0023835Y0121505D01*
X0022165Y0121505D01*
X0020621Y0120866D01*
X0019439Y0119685D01*
X0018800Y0118141D01*
X0018800Y0111270D01*
X0019439Y0109726D01*
X0020621Y0108545D01*
X0022165Y0107906D01*
X0023835Y0107906D01*
X0024150Y0108036D01*
X0024150Y0105865D01*
X0023436Y0105865D01*
X0022498Y0104927D01*
X0022498Y0098799D01*
X0023303Y0097994D01*
X0021112Y0097647D01*
X0021112Y0097647D01*
X0016986Y0095545D01*
X0016986Y0095545D01*
X0013712Y0092271D01*
X0013712Y0092271D01*
X0011609Y0088145D01*
X0010885Y0083572D01*
X0010885Y0083572D01*
X0011609Y0078998D01*
X0013712Y0074872D01*
X0016986Y0071598D01*
X0021112Y0069496D01*
X0025685Y0068772D01*
X0030258Y0069496D01*
X0030258Y0069496D01*
X0034384Y0071598D01*
X0034384Y0071598D01*
X0037658Y0074872D01*
X0037658Y0074872D01*
X0038841Y0077193D01*
X0038841Y0076141D01*
X0039778Y0075204D01*
X0040800Y0075204D01*
X0040800Y0072136D01*
X0045063Y0067872D01*
X0039936Y0067872D01*
X0038998Y0066935D01*
X0038998Y0062027D01*
X0039936Y0061090D01*
X0040800Y0061090D01*
X0040800Y0060940D01*
X0040621Y0060866D01*
X0039439Y0059685D01*
X0038800Y0058141D01*
X0038800Y0051270D01*
X0039439Y0049726D01*
X0040621Y0048545D01*
X0042165Y0047906D01*
X0043835Y0047906D01*
X0045379Y0048545D01*
X0046561Y0049726D01*
X0047200Y0051270D01*
X0047200Y0058141D01*
X0046561Y0059685D01*
X0045379Y0060866D01*
X0045000Y0061023D01*
X0045000Y0061090D01*
X0046064Y0061090D01*
X0047002Y0062027D01*
X0047002Y0065934D01*
X0051645Y0061290D01*
X0050621Y0060866D01*
X0049439Y0059685D01*
X0048800Y0058141D01*
X0048800Y0051270D01*
X0049439Y0049726D01*
X0050621Y0048545D01*
X0052165Y0047906D01*
X0053835Y0047906D01*
X0055379Y0048545D01*
X0056561Y0049726D01*
X0057000Y0050787D01*
X0057000Y0038386D01*
X0057298Y0038088D01*
X0057298Y0032450D01*
X0057993Y0030771D01*
X0059278Y0029486D01*
X0060957Y0028791D01*
X0062775Y0028791D01*
X0064454Y0029486D01*
X0065739Y0030771D01*
X0066435Y0032450D01*
X0066435Y0040205D01*
X0065739Y0041884D01*
X0064454Y0043169D01*
X0062775Y0043865D01*
X0061200Y0043865D01*
X0061200Y0048305D01*
X0062165Y0047906D01*
X0063835Y0047906D01*
X0065379Y0048545D01*
X0066561Y0049726D01*
X0066900Y0050546D01*
X0066900Y0038386D01*
X0067298Y0037988D01*
X0067298Y0032450D01*
X0067993Y0030771D01*
X0069278Y0029486D01*
X0070957Y0028791D01*
X0072775Y0028791D01*
X0074454Y0029486D01*
X0075739Y0030771D01*
X0076435Y0032450D01*
X0076435Y0040205D01*
X0075739Y0041884D01*
X0074454Y0043169D01*
X0072775Y0043865D01*
X0071100Y0043865D01*
X0071100Y0048346D01*
X0072165Y0047906D01*
X0073835Y0047906D01*
X0075379Y0048545D01*
X0076561Y0049726D01*
X0077200Y0051270D01*
X0077200Y0058141D01*
X0076561Y0059685D01*
X0075379Y0060866D01*
X0073835Y0061505D01*
X0072165Y0061505D01*
X0071100Y0061065D01*
X0071100Y0065775D01*
X0069870Y0067005D01*
X0065250Y0071625D01*
X0065250Y0075204D01*
X0065907Y0075204D01*
X0066844Y0076141D01*
X0066844Y0081049D01*
X0065907Y0081987D01*
X0059778Y0081987D01*
X0058841Y0081049D01*
X0058841Y0076141D01*
X0059778Y0075204D01*
X0061050Y0075204D01*
X0061050Y0069886D01*
X0063063Y0067872D01*
X0059936Y0067872D01*
X0058998Y0066935D01*
X0058998Y0062027D01*
X0059936Y0061090D01*
X0061050Y0061090D01*
X0061050Y0061044D01*
X0060621Y0060866D01*
X0059439Y0059685D01*
X0059367Y0059509D01*
X0045000Y0073875D01*
X0045000Y0075204D01*
X0045907Y0075204D01*
X0046844Y0076141D01*
X0046844Y0081049D01*
X0045907Y0081987D01*
X0040234Y0081987D01*
X0040485Y0083572D01*
X0039761Y0088145D01*
X0039761Y0088145D01*
X0037658Y0092271D01*
X0034384Y0095545D01*
X0030258Y0097647D01*
X0028421Y0097938D01*
X0029281Y0098799D01*
X0029281Y0104927D01*
X0028350Y0105858D01*
X0028350Y0108586D01*
X0029465Y0109701D01*
X0030621Y0108545D01*
X0030900Y0108429D01*
X0030900Y0105707D01*
X0030322Y0105707D01*
X0029384Y0104770D01*
X0029384Y0098641D01*
X0030322Y0097704D01*
X0035230Y0097704D01*
X0036167Y0098641D01*
X0036167Y0104770D01*
X0035230Y0105707D01*
X0035100Y0105707D01*
X0035100Y0108429D01*
X0035379Y0108545D01*
X0036561Y0109726D01*
X0036750Y0110184D01*
X0036750Y0109036D01*
X0037980Y0107806D01*
X0043498Y0102287D01*
X0043498Y0098799D01*
X0044436Y0097861D01*
X0049344Y0097861D01*
X0050281Y0098799D01*
X0050281Y0104927D01*
X0049344Y0105865D01*
X0045861Y0105865D01*
X0043820Y0107906D01*
X0043835Y0107906D01*
X0045379Y0108545D01*
X0046561Y0109726D01*
X0047200Y0111270D01*
X0047200Y0114386D01*
X0048800Y0115986D01*
X0048800Y0111270D01*
X0049439Y0109726D01*
X0050621Y0108545D01*
X0052165Y0107906D01*
X0053835Y0107906D01*
X0055379Y0108545D01*
X0056561Y0109726D01*
X0057200Y0111270D01*
X0057200Y0118141D01*
X0056561Y0119685D01*
X0055379Y0120866D01*
X0054318Y0121306D01*
X0055470Y0121306D01*
X0058708Y0124544D01*
X0059278Y0123974D01*
X0060957Y0123279D01*
X0061050Y0123279D01*
X0061050Y0121044D01*
X0060621Y0120866D01*
X0059439Y0119685D01*
X0058800Y0118141D01*
X0058800Y0111270D01*
X0059439Y0109726D01*
X0060621Y0108545D01*
X0062165Y0107906D01*
X0063835Y0107906D01*
X0065379Y0108545D01*
X0066561Y0109726D01*
X0067200Y0111270D01*
X0067200Y0118141D01*
X0066561Y0119685D01*
X0065379Y0120866D01*
X0065250Y0120920D01*
X0065250Y0122086D01*
X0068070Y0124906D01*
X0068208Y0125044D01*
X0069278Y0123974D01*
X0070957Y0123279D01*
X0072775Y0123279D01*
X0074454Y0123974D01*
X0075000Y0124520D01*
X0075000Y0121023D01*
X0073835Y0121505D01*
X0072165Y0121505D01*
X0070621Y0120866D01*
X0069439Y0119685D01*
X0068800Y0118141D01*
X0068800Y0111270D01*
X0069439Y0109726D01*
X0070621Y0108545D01*
X0072165Y0107906D01*
X0073835Y0107906D01*
X0075379Y0108545D01*
X0076560Y0109726D01*
X0080719Y0105567D01*
X0080719Y0099484D01*
X0081656Y0098546D01*
X0086564Y0098546D01*
X0087502Y0099484D01*
X0087502Y0105612D01*
X0086564Y0106550D01*
X0085676Y0106550D01*
X0084178Y0108047D01*
X0085379Y0108545D01*
X0086561Y0109726D01*
X0087200Y0111270D01*
X0087200Y0118141D01*
X0086561Y0119685D01*
X0085600Y0120645D01*
X0085600Y0122044D01*
X0088361Y0124806D01*
X0088404Y0124848D01*
X0089278Y0123974D01*
X0090957Y0123279D01*
X0092775Y0123279D01*
X0094454Y0123974D01*
X0094800Y0124320D01*
X0094800Y0123003D02*
X0086559Y0123003D01*
X0085600Y0121404D02*
X0091920Y0121404D01*
X0089561Y0119806D02*
X0086439Y0119806D01*
X0087173Y0118207D02*
X0088827Y0118207D01*
X0088800Y0116609D02*
X0087200Y0116609D01*
X0087200Y0115010D02*
X0088800Y0115010D01*
X0088800Y0113412D02*
X0087200Y0113412D01*
X0087200Y0111813D02*
X0088800Y0111813D01*
X0089237Y0110215D02*
X0086763Y0110215D01*
X0085450Y0108616D02*
X0090550Y0108616D01*
X0093000Y0107018D02*
X0085208Y0107018D01*
X0087502Y0105419D02*
X0093000Y0105419D01*
X0093000Y0103821D02*
X0087502Y0103821D01*
X0087502Y0102222D02*
X0093000Y0102222D01*
X0093000Y0100624D02*
X0087502Y0100624D01*
X0087043Y0099025D02*
X0093000Y0099025D01*
X0094259Y0097427D02*
X0030692Y0097427D01*
X0030258Y0097647D02*
X0030258Y0097647D01*
X0029384Y0099025D02*
X0029281Y0099025D01*
X0029281Y0100624D02*
X0029384Y0100624D01*
X0029384Y0102222D02*
X0029281Y0102222D01*
X0029281Y0103821D02*
X0029384Y0103821D01*
X0028789Y0105419D02*
X0030034Y0105419D01*
X0030900Y0107018D02*
X0028350Y0107018D01*
X0028381Y0108616D02*
X0030550Y0108616D01*
X0035100Y0107018D02*
X0038768Y0107018D01*
X0037169Y0108616D02*
X0035450Y0108616D01*
X0035518Y0105419D02*
X0040366Y0105419D01*
X0041965Y0103821D02*
X0036167Y0103821D01*
X0036167Y0102222D02*
X0043498Y0102222D01*
X0043498Y0100624D02*
X0036167Y0100624D01*
X0036167Y0099025D02*
X0043498Y0099025D01*
X0044708Y0107018D02*
X0079268Y0107018D01*
X0080719Y0105419D02*
X0049789Y0105419D01*
X0050281Y0103821D02*
X0080719Y0103821D01*
X0080719Y0102222D02*
X0050281Y0102222D01*
X0050281Y0100624D02*
X0080719Y0100624D01*
X0081177Y0099025D02*
X0050281Y0099025D01*
X0050550Y0108616D02*
X0045450Y0108616D01*
X0046763Y0110215D02*
X0049237Y0110215D01*
X0048800Y0111813D02*
X0047200Y0111813D01*
X0047200Y0113412D02*
X0048800Y0113412D01*
X0048800Y0115010D02*
X0047825Y0115010D01*
X0046560Y0119685D02*
X0045379Y0120866D01*
X0044318Y0121306D01*
X0045120Y0121306D01*
X0048533Y0124719D01*
X0049278Y0123974D01*
X0050389Y0123514D01*
X0046560Y0119685D01*
X0046680Y0119806D02*
X0046439Y0119806D01*
X0045219Y0121404D02*
X0048279Y0121404D01*
X0046817Y0123003D02*
X0049877Y0123003D01*
X0048651Y0124601D02*
X0048416Y0124601D01*
X0046435Y0128560D02*
X0046435Y0134693D01*
X0045739Y0136372D01*
X0044454Y0137657D01*
X0043123Y0138209D01*
X0046020Y0141106D01*
X0052320Y0141106D01*
X0054170Y0142956D01*
X0057968Y0142956D01*
X0060750Y0145738D01*
X0060750Y0149673D01*
X0059967Y0150456D01*
X0062033Y0150456D01*
X0061250Y0149673D01*
X0061250Y0145738D01*
X0064032Y0142956D01*
X0067968Y0142956D01*
X0070750Y0145738D01*
X0070750Y0149673D01*
X0069967Y0150456D01*
X0072033Y0150456D01*
X0071250Y0149673D01*
X0071250Y0146175D01*
X0065100Y0140025D01*
X0065100Y0137011D01*
X0064454Y0137657D01*
X0062775Y0138353D01*
X0060957Y0138353D01*
X0059278Y0137657D01*
X0057993Y0136372D01*
X0057298Y0134693D01*
X0057298Y0129073D01*
X0056435Y0128210D01*
X0056435Y0134693D01*
X0055739Y0136372D01*
X0054454Y0137657D01*
X0052775Y0138353D01*
X0050957Y0138353D01*
X0049278Y0137657D01*
X0047993Y0136372D01*
X0047298Y0134693D01*
X0047298Y0129423D01*
X0046435Y0128560D01*
X0046435Y0129397D02*
X0047271Y0129397D01*
X0047298Y0130995D02*
X0046435Y0130995D01*
X0046435Y0132594D02*
X0047298Y0132594D01*
X0047298Y0134192D02*
X0046435Y0134192D01*
X0045980Y0135791D02*
X0047752Y0135791D01*
X0049010Y0137389D02*
X0044722Y0137389D01*
X0043902Y0138988D02*
X0065100Y0138988D01*
X0065100Y0137389D02*
X0064722Y0137389D01*
X0065661Y0140586D02*
X0045501Y0140586D01*
X0050317Y0145305D02*
X0050750Y0145738D01*
X0050750Y0149673D01*
X0049967Y0150456D01*
X0052033Y0150456D01*
X0051250Y0149673D01*
X0051250Y0145975D01*
X0050580Y0145305D01*
X0050317Y0145305D01*
X0050394Y0145382D02*
X0050657Y0145382D01*
X0050750Y0146980D02*
X0051250Y0146980D01*
X0051250Y0148579D02*
X0050750Y0148579D01*
X0050246Y0150177D02*
X0051754Y0150177D01*
X0058795Y0143783D02*
X0063205Y0143783D01*
X0061606Y0145382D02*
X0060394Y0145382D01*
X0060750Y0146980D02*
X0061250Y0146980D01*
X0061250Y0148579D02*
X0060750Y0148579D01*
X0060246Y0150177D02*
X0061754Y0150177D01*
X0068795Y0143783D02*
X0068858Y0143783D01*
X0070394Y0145382D02*
X0070457Y0145382D01*
X0070750Y0146980D02*
X0071250Y0146980D01*
X0071250Y0148579D02*
X0070750Y0148579D01*
X0070246Y0150177D02*
X0071754Y0150177D01*
X0074001Y0142987D02*
X0074032Y0142956D01*
X0077968Y0142956D01*
X0080750Y0145738D01*
X0080750Y0149673D01*
X0079967Y0150456D01*
X0082033Y0150456D01*
X0081250Y0149673D01*
X0081250Y0145738D01*
X0084032Y0142956D01*
X0085250Y0142956D01*
X0085250Y0136861D01*
X0084454Y0137657D01*
X0082775Y0138353D01*
X0080957Y0138353D01*
X0079278Y0137657D01*
X0077993Y0136372D01*
X0077298Y0134693D01*
X0077298Y0128428D01*
X0076435Y0129291D01*
X0076435Y0134693D01*
X0075739Y0136372D01*
X0074454Y0137657D01*
X0072775Y0138353D01*
X0070957Y0138353D01*
X0069300Y0137666D01*
X0069300Y0138286D01*
X0074001Y0142987D01*
X0073199Y0142185D02*
X0085250Y0142185D01*
X0085250Y0140586D02*
X0071601Y0140586D01*
X0070002Y0138988D02*
X0085250Y0138988D01*
X0085250Y0137389D02*
X0084722Y0137389D01*
X0083205Y0143783D02*
X0078795Y0143783D01*
X0080394Y0145382D02*
X0081606Y0145382D01*
X0081250Y0146980D02*
X0080750Y0146980D01*
X0080750Y0148579D02*
X0081250Y0148579D01*
X0081754Y0150177D02*
X0080246Y0150177D01*
X0079010Y0137389D02*
X0074722Y0137389D01*
X0075980Y0135791D02*
X0077752Y0135791D01*
X0077298Y0134192D02*
X0076435Y0134192D01*
X0076435Y0132594D02*
X0077298Y0132594D01*
X0077298Y0130995D02*
X0076435Y0130995D01*
X0076435Y0129397D02*
X0077298Y0129397D01*
X0079200Y0124053D02*
X0079278Y0123974D01*
X0080957Y0123279D01*
X0081200Y0123279D01*
X0081200Y0121106D01*
X0080621Y0120866D01*
X0079439Y0119685D01*
X0079200Y0119107D01*
X0079200Y0124053D01*
X0079200Y0123003D02*
X0081200Y0123003D01*
X0081200Y0121404D02*
X0079200Y0121404D01*
X0079200Y0119806D02*
X0079561Y0119806D01*
X0075000Y0121404D02*
X0074080Y0121404D01*
X0075000Y0123003D02*
X0066167Y0123003D01*
X0065250Y0121404D02*
X0071920Y0121404D01*
X0069561Y0119806D02*
X0066439Y0119806D01*
X0067173Y0118207D02*
X0068827Y0118207D01*
X0068800Y0116609D02*
X0067200Y0116609D01*
X0067200Y0115010D02*
X0068800Y0115010D01*
X0068800Y0113412D02*
X0067200Y0113412D01*
X0067200Y0111813D02*
X0068800Y0111813D01*
X0069237Y0110215D02*
X0066763Y0110215D01*
X0065450Y0108616D02*
X0070550Y0108616D01*
X0075450Y0108616D02*
X0077669Y0108616D01*
X0068651Y0124601D02*
X0067766Y0124601D01*
X0061050Y0123003D02*
X0057167Y0123003D01*
X0055569Y0121404D02*
X0061050Y0121404D01*
X0059561Y0119806D02*
X0056439Y0119806D01*
X0057173Y0118207D02*
X0058827Y0118207D01*
X0058800Y0116609D02*
X0057200Y0116609D01*
X0057200Y0115010D02*
X0058800Y0115010D01*
X0058800Y0113412D02*
X0057200Y0113412D01*
X0057200Y0111813D02*
X0058800Y0111813D01*
X0059237Y0110215D02*
X0056763Y0110215D01*
X0055450Y0108616D02*
X0060550Y0108616D01*
X0057298Y0129397D02*
X0056435Y0129397D01*
X0056435Y0130995D02*
X0057298Y0130995D01*
X0057298Y0132594D02*
X0056435Y0132594D01*
X0056435Y0134192D02*
X0057298Y0134192D01*
X0057752Y0135791D02*
X0055980Y0135791D01*
X0054722Y0137389D02*
X0059010Y0137389D01*
X0053399Y0142185D02*
X0067260Y0142185D01*
X0088157Y0124601D02*
X0088651Y0124601D01*
X0094080Y0121404D02*
X0094800Y0121404D01*
X0099000Y0121404D02*
X0101920Y0121404D01*
X0102165Y0121505D02*
X0100621Y0120866D01*
X0099439Y0119685D01*
X0099000Y0118624D01*
X0099000Y0124253D01*
X0099278Y0123974D01*
X0100957Y0123279D01*
X0102775Y0123279D01*
X0104454Y0123974D01*
X0105208Y0124728D01*
X0108630Y0121306D01*
X0111682Y0121306D01*
X0110621Y0120866D01*
X0109439Y0119685D01*
X0108800Y0118141D01*
X0108800Y0113525D01*
X0107200Y0111925D01*
X0107200Y0118141D01*
X0106561Y0119685D01*
X0105379Y0120866D01*
X0103835Y0121505D01*
X0102165Y0121505D01*
X0104080Y0121404D02*
X0108531Y0121404D01*
X0109561Y0119806D02*
X0106439Y0119806D01*
X0107173Y0118207D02*
X0108827Y0118207D01*
X0108800Y0116609D02*
X0107200Y0116609D01*
X0107200Y0115010D02*
X0108800Y0115010D01*
X0108686Y0113412D02*
X0107200Y0113412D01*
X0110190Y0108976D02*
X0110621Y0108545D01*
X0111857Y0108033D01*
X0111000Y0107175D01*
X0111000Y0106550D01*
X0107764Y0106550D01*
X0110190Y0108976D01*
X0109831Y0108616D02*
X0110550Y0108616D01*
X0111000Y0107018D02*
X0108232Y0107018D01*
X0105719Y0104505D02*
X0105719Y0104355D01*
X0105570Y0104355D01*
X0105719Y0104505D01*
X0103180Y0107906D02*
X0101330Y0106055D01*
X0100678Y0106707D01*
X0097200Y0106707D01*
X0097200Y0107686D01*
X0097770Y0108256D01*
X0099000Y0109486D01*
X0099000Y0110787D01*
X0099439Y0109726D01*
X0100621Y0108545D01*
X0102165Y0107906D01*
X0103180Y0107906D01*
X0102292Y0107018D02*
X0097200Y0107018D01*
X0098131Y0108616D02*
X0100550Y0108616D01*
X0099237Y0110215D02*
X0099000Y0110215D01*
X0099000Y0119806D02*
X0099561Y0119806D01*
X0099000Y0123003D02*
X0106933Y0123003D01*
X0105334Y0124601D02*
X0105081Y0124601D01*
X0107298Y0128578D02*
X0106435Y0129441D01*
X0106435Y0133401D01*
X0107298Y0132538D01*
X0107298Y0128578D01*
X0107298Y0129397D02*
X0106479Y0129397D01*
X0106435Y0130995D02*
X0107298Y0130995D01*
X0107242Y0132594D02*
X0106435Y0132594D01*
X0108386Y0137389D02*
X0109010Y0137389D01*
X0106787Y0138988D02*
X0146132Y0138988D01*
X0146132Y0140586D02*
X0105189Y0140586D01*
X0108795Y0143783D02*
X0113205Y0143783D01*
X0111606Y0145382D02*
X0110394Y0145382D01*
X0110750Y0146980D02*
X0111250Y0146980D01*
X0111250Y0148579D02*
X0110750Y0148579D01*
X0110246Y0150177D02*
X0111754Y0150177D01*
X0113353Y0151776D02*
X0108647Y0151776D01*
X0114722Y0137389D02*
X0146132Y0137389D01*
X0146132Y0135791D02*
X0115980Y0135791D01*
X0116435Y0134192D02*
X0146132Y0134192D01*
X0146132Y0132594D02*
X0126231Y0132594D01*
X0127830Y0130995D02*
X0146132Y0130995D01*
X0146132Y0129397D02*
X0129429Y0129397D01*
X0131027Y0127798D02*
X0146132Y0127798D01*
X0146132Y0126200D02*
X0132626Y0126200D01*
X0134224Y0124601D02*
X0146132Y0124601D01*
X0146132Y0123003D02*
X0135823Y0123003D01*
X0137421Y0121404D02*
X0141920Y0121404D01*
X0139561Y0119806D02*
X0139020Y0119806D01*
X0137875Y0115010D02*
X0137200Y0115010D01*
X0137200Y0113412D02*
X0138800Y0113412D01*
X0138800Y0111813D02*
X0137200Y0111813D01*
X0136763Y0110215D02*
X0139237Y0110215D01*
X0140550Y0108616D02*
X0135450Y0108616D01*
X0130550Y0108616D02*
X0130081Y0108616D01*
X0128482Y0107018D02*
X0146132Y0107018D01*
X0146132Y0108616D02*
X0145450Y0108616D01*
X0146132Y0105419D02*
X0126883Y0105419D01*
X0126616Y0103821D02*
X0146132Y0103821D01*
X0146132Y0102222D02*
X0126616Y0102222D01*
X0126616Y0100624D02*
X0146132Y0100624D01*
X0146132Y0099025D02*
X0126000Y0099025D01*
X0123041Y0097427D02*
X0115200Y0097427D01*
X0115200Y0099025D02*
X0120449Y0099025D01*
X0119833Y0100624D02*
X0115200Y0100624D01*
X0115200Y0102222D02*
X0119833Y0102222D01*
X0119833Y0103821D02*
X0115200Y0103821D01*
X0115200Y0105419D02*
X0119833Y0105419D01*
X0122542Y0107018D02*
X0116782Y0107018D01*
X0118381Y0108616D02*
X0120550Y0108616D01*
X0127200Y0111675D02*
X0127200Y0118141D01*
X0126561Y0119685D01*
X0125379Y0120866D01*
X0123835Y0121505D01*
X0122165Y0121505D01*
X0120621Y0120866D01*
X0119439Y0119685D01*
X0119250Y0119227D01*
X0119250Y0119775D01*
X0114753Y0124273D01*
X0115739Y0125259D01*
X0116435Y0126938D01*
X0116435Y0128506D01*
X0124380Y0128506D01*
X0131610Y0121276D01*
X0130621Y0120866D01*
X0129439Y0119685D01*
X0128800Y0118141D01*
X0128800Y0113275D01*
X0127200Y0111675D01*
X0127200Y0111813D02*
X0127338Y0111813D01*
X0127200Y0113412D02*
X0128800Y0113412D01*
X0128800Y0115010D02*
X0127200Y0115010D01*
X0127200Y0116609D02*
X0128800Y0116609D01*
X0128827Y0118207D02*
X0127173Y0118207D01*
X0126439Y0119806D02*
X0129561Y0119806D01*
X0129883Y0123003D02*
X0116023Y0123003D01*
X0115081Y0124601D02*
X0128284Y0124601D01*
X0126686Y0126200D02*
X0116129Y0126200D01*
X0116435Y0127798D02*
X0125087Y0127798D01*
X0124080Y0121404D02*
X0131481Y0121404D01*
X0121920Y0121404D02*
X0117621Y0121404D01*
X0119220Y0119806D02*
X0119561Y0119806D01*
X0106177Y0099025D02*
X0103839Y0099025D01*
X0102241Y0097427D02*
X0111000Y0097427D01*
X0111000Y0095828D02*
X0033829Y0095828D01*
X0034384Y0095545D02*
X0034384Y0095545D01*
X0035700Y0094230D02*
X0111000Y0094230D01*
X0111000Y0092631D02*
X0037298Y0092631D01*
X0037658Y0092271D02*
X0037658Y0092271D01*
X0038289Y0091033D02*
X0111000Y0091033D01*
X0111000Y0089434D02*
X0039104Y0089434D01*
X0039810Y0087836D02*
X0111000Y0087836D01*
X0111000Y0086237D02*
X0040063Y0086237D01*
X0040316Y0084639D02*
X0111000Y0084639D01*
X0111000Y0083040D02*
X0040401Y0083040D01*
X0046452Y0081441D02*
X0059233Y0081441D01*
X0058841Y0079843D02*
X0046844Y0079843D01*
X0046844Y0078244D02*
X0058841Y0078244D01*
X0058841Y0076646D02*
X0046844Y0076646D01*
X0045000Y0075047D02*
X0061050Y0075047D01*
X0061050Y0073449D02*
X0045426Y0073449D01*
X0047025Y0071850D02*
X0061050Y0071850D01*
X0061050Y0070252D02*
X0048623Y0070252D01*
X0050222Y0068653D02*
X0062282Y0068653D01*
X0059118Y0067055D02*
X0051820Y0067055D01*
X0053419Y0065456D02*
X0058998Y0065456D01*
X0058998Y0063858D02*
X0055017Y0063858D01*
X0056616Y0062259D02*
X0058998Y0062259D01*
X0058214Y0060661D02*
X0060416Y0060661D01*
X0065250Y0060920D02*
X0065250Y0061090D01*
X0066064Y0061090D01*
X0066900Y0061925D01*
X0066900Y0058865D01*
X0066561Y0059685D01*
X0065379Y0060866D01*
X0065250Y0060920D01*
X0065584Y0060661D02*
X0066900Y0060661D01*
X0066900Y0059062D02*
X0066818Y0059062D01*
X0071100Y0062259D02*
X0094800Y0062259D01*
X0094800Y0061106D02*
X0093835Y0061505D01*
X0092165Y0061505D01*
X0090621Y0060866D01*
X0089439Y0059685D01*
X0088800Y0058141D01*
X0088800Y0051270D01*
X0089439Y0049726D01*
X0090621Y0048545D01*
X0090750Y0048491D01*
X0090750Y0048225D01*
X0085074Y0042549D01*
X0084454Y0043169D01*
X0082775Y0043865D01*
X0080957Y0043865D01*
X0079278Y0043169D01*
X0077993Y0041884D01*
X0077298Y0040205D01*
X0077298Y0032450D01*
X0077993Y0030771D01*
X0079278Y0029486D01*
X0080957Y0028791D01*
X0082775Y0028791D01*
X0084454Y0029486D01*
X0085739Y0030771D01*
X0086435Y0032450D01*
X0086435Y0037970D01*
X0087298Y0038833D01*
X0087298Y0032450D01*
X0087993Y0030771D01*
X0089278Y0029486D01*
X0090957Y0028791D01*
X0092775Y0028791D01*
X0094454Y0029486D01*
X0095739Y0030771D01*
X0096435Y0032450D01*
X0096435Y0038070D01*
X0097298Y0038933D01*
X0097298Y0032450D01*
X0097993Y0030771D01*
X0099278Y0029486D01*
X0100957Y0028791D01*
X0102775Y0028791D01*
X0104454Y0029486D01*
X0105739Y0030771D01*
X0106435Y0032450D01*
X0106435Y0037720D01*
X0107298Y0038583D01*
X0107298Y0032450D01*
X0107993Y0030771D01*
X0109278Y0029486D01*
X0110957Y0028791D01*
X0112775Y0028791D01*
X0114454Y0029486D01*
X0115739Y0030771D01*
X0116435Y0032450D01*
X0116435Y0036920D01*
X0129381Y0049867D01*
X0129439Y0049726D01*
X0130621Y0048545D01*
X0132165Y0047906D01*
X0133835Y0047906D01*
X0135379Y0048545D01*
X0136561Y0049726D01*
X0137200Y0051270D01*
X0137200Y0058141D01*
X0136561Y0059685D01*
X0135379Y0060866D01*
X0133835Y0061505D01*
X0132165Y0061505D01*
X0130621Y0060866D01*
X0129439Y0059685D01*
X0128800Y0058141D01*
X0128800Y0055225D01*
X0127200Y0053625D01*
X0127200Y0058141D01*
X0126561Y0059685D01*
X0125379Y0060866D01*
X0123835Y0061505D01*
X0122165Y0061505D01*
X0120621Y0060866D01*
X0119439Y0059685D01*
X0118800Y0058141D01*
X0118800Y0051270D01*
X0119439Y0049726D01*
X0120621Y0048545D01*
X0121681Y0048106D01*
X0115599Y0042024D01*
X0114454Y0043169D01*
X0112775Y0043865D01*
X0112579Y0043865D01*
X0114750Y0046036D01*
X0114750Y0048284D01*
X0115379Y0048545D01*
X0116561Y0049726D01*
X0117200Y0051270D01*
X0117200Y0058141D01*
X0116561Y0059685D01*
X0115379Y0060866D01*
X0113835Y0061505D01*
X0112165Y0061505D01*
X0110621Y0060866D01*
X0109439Y0059685D01*
X0108800Y0058141D01*
X0108800Y0051270D01*
X0109439Y0049726D01*
X0110550Y0048616D01*
X0110550Y0047775D01*
X0105199Y0042424D01*
X0104454Y0043169D01*
X0102775Y0043865D01*
X0100957Y0043865D01*
X0099278Y0043169D01*
X0099000Y0042891D01*
X0099000Y0050787D01*
X0099439Y0049726D01*
X0100621Y0048545D01*
X0102165Y0047906D01*
X0103835Y0047906D01*
X0105379Y0048545D01*
X0106561Y0049726D01*
X0107200Y0051270D01*
X0107200Y0058141D01*
X0106561Y0059685D01*
X0105379Y0060866D01*
X0105300Y0060899D01*
X0105300Y0061090D01*
X0106064Y0061090D01*
X0107002Y0062027D01*
X0107002Y0066935D01*
X0106064Y0067872D01*
X0103287Y0067872D01*
X0104850Y0069436D01*
X0104850Y0075204D01*
X0105907Y0075204D01*
X0106844Y0076141D01*
X0106844Y0081049D01*
X0105907Y0081987D01*
X0099778Y0081987D01*
X0098841Y0081049D01*
X0098841Y0076141D01*
X0099778Y0075204D01*
X0100650Y0075204D01*
X0100650Y0071175D01*
X0096030Y0066555D01*
X0094800Y0065325D01*
X0094800Y0061106D01*
X0094800Y0063858D02*
X0071100Y0063858D01*
X0071100Y0065456D02*
X0094931Y0065456D01*
X0096530Y0067055D02*
X0069820Y0067055D01*
X0068222Y0068653D02*
X0098128Y0068653D01*
X0099727Y0070252D02*
X0066623Y0070252D01*
X0065250Y0071850D02*
X0100650Y0071850D01*
X0100650Y0073449D02*
X0065250Y0073449D01*
X0065250Y0075047D02*
X0100650Y0075047D01*
X0098841Y0076646D02*
X0066844Y0076646D01*
X0066844Y0078244D02*
X0098841Y0078244D01*
X0098841Y0079843D02*
X0066844Y0079843D01*
X0066452Y0081441D02*
X0099233Y0081441D01*
X0104850Y0075047D02*
X0113038Y0075047D01*
X0114637Y0073449D02*
X0104850Y0073449D01*
X0104850Y0071850D02*
X0116235Y0071850D01*
X0117834Y0070252D02*
X0104850Y0070252D01*
X0104068Y0068653D02*
X0119432Y0068653D01*
X0121031Y0067055D02*
X0106882Y0067055D01*
X0107002Y0065456D02*
X0122629Y0065456D01*
X0124228Y0063858D02*
X0107002Y0063858D01*
X0107002Y0062259D02*
X0124943Y0062259D01*
X0125584Y0060661D02*
X0130416Y0060661D01*
X0131277Y0062259D02*
X0139215Y0062259D01*
X0138833Y0063858D02*
X0131502Y0063858D01*
X0131502Y0065456D02*
X0138833Y0065456D01*
X0138833Y0067055D02*
X0131502Y0067055D01*
X0131460Y0068653D02*
X0138833Y0068653D01*
X0136999Y0071850D02*
X0146132Y0071850D01*
X0146132Y0070252D02*
X0134104Y0070252D01*
X0132621Y0069496D02*
X0132621Y0069496D01*
X0138597Y0073449D02*
X0146132Y0073449D01*
X0146132Y0075047D02*
X0140110Y0075047D01*
X0140924Y0076646D02*
X0146132Y0076646D01*
X0146132Y0078244D02*
X0141739Y0078244D01*
X0142257Y0079843D02*
X0146132Y0079843D01*
X0146132Y0081441D02*
X0142510Y0081441D01*
X0142763Y0083040D02*
X0146132Y0083040D01*
X0146132Y0084639D02*
X0142678Y0084639D01*
X0142425Y0086237D02*
X0146132Y0086237D01*
X0146132Y0087836D02*
X0142172Y0087836D01*
X0142123Y0088145D02*
X0142123Y0088145D01*
X0141466Y0089434D02*
X0146132Y0089434D01*
X0146132Y0091033D02*
X0140652Y0091033D01*
X0139660Y0092631D02*
X0146132Y0092631D01*
X0146132Y0094230D02*
X0138062Y0094230D01*
X0136746Y0095545D02*
X0136746Y0095545D01*
X0136191Y0095828D02*
X0146132Y0095828D01*
X0146132Y0097427D02*
X0133054Y0097427D01*
X0119903Y0095828D02*
X0115200Y0095828D01*
X0115200Y0094230D02*
X0118033Y0094230D01*
X0119348Y0095545D02*
X0119348Y0095545D01*
X0116434Y0092631D02*
X0115200Y0092631D01*
X0115200Y0091033D02*
X0115443Y0091033D01*
X0111000Y0081441D02*
X0106452Y0081441D01*
X0106844Y0079843D02*
X0111000Y0079843D01*
X0111000Y0078244D02*
X0106844Y0078244D01*
X0106844Y0076646D02*
X0111440Y0076646D01*
X0124728Y0069297D02*
X0125312Y0069205D01*
X0125066Y0068959D01*
X0124728Y0069297D01*
X0120416Y0060661D02*
X0115584Y0060661D01*
X0116818Y0059062D02*
X0119182Y0059062D01*
X0118800Y0057464D02*
X0117200Y0057464D01*
X0117200Y0055865D02*
X0118800Y0055865D01*
X0118800Y0054267D02*
X0117200Y0054267D01*
X0117200Y0052668D02*
X0118800Y0052668D01*
X0118883Y0051070D02*
X0117117Y0051070D01*
X0116305Y0049471D02*
X0119695Y0049471D01*
X0121447Y0047873D02*
X0114750Y0047873D01*
X0114750Y0046274D02*
X0119849Y0046274D01*
X0118250Y0044676D02*
X0113390Y0044676D01*
X0114546Y0043077D02*
X0116652Y0043077D01*
X0119395Y0039880D02*
X0146132Y0039880D01*
X0146132Y0038282D02*
X0117796Y0038282D01*
X0116435Y0036683D02*
X0146132Y0036683D01*
X0146132Y0035085D02*
X0116435Y0035085D01*
X0116435Y0033486D02*
X0146132Y0033486D01*
X0146132Y0031888D02*
X0116202Y0031888D01*
X0115257Y0030289D02*
X0146132Y0030289D01*
X0146132Y0028691D02*
X0007600Y0028691D01*
X0007600Y0030289D02*
X0038475Y0030289D01*
X0037993Y0030771D02*
X0039278Y0029486D01*
X0040957Y0028791D01*
X0042775Y0028791D01*
X0044454Y0029486D01*
X0045739Y0030771D01*
X0046435Y0032450D01*
X0046435Y0038601D01*
X0047298Y0037738D01*
X0047298Y0032450D01*
X0047993Y0030771D01*
X0049278Y0029486D01*
X0050957Y0028791D01*
X0052775Y0028791D01*
X0054454Y0029486D01*
X0055739Y0030771D01*
X0056435Y0032450D01*
X0056435Y0040205D01*
X0055739Y0041884D01*
X0054454Y0043169D01*
X0052775Y0043865D01*
X0050957Y0043865D01*
X0049278Y0043169D01*
X0048542Y0042433D01*
X0045120Y0045855D01*
X0036570Y0045855D01*
X0034319Y0048106D01*
X0035379Y0048545D01*
X0036561Y0049726D01*
X0037200Y0051270D01*
X0037200Y0058141D01*
X0036561Y0059685D01*
X0035379Y0060866D01*
X0033835Y0061505D01*
X0032165Y0061505D01*
X0030621Y0060866D01*
X0029439Y0059685D01*
X0028800Y0058141D01*
X0028800Y0053625D01*
X0027200Y0055225D01*
X0027200Y0058141D01*
X0026561Y0059685D01*
X0025379Y0060866D01*
X0023835Y0061505D01*
X0022165Y0061505D01*
X0020621Y0060866D01*
X0019439Y0059685D01*
X0018800Y0058141D01*
X0018800Y0053725D01*
X0017200Y0055325D01*
X0017200Y0058141D01*
X0016561Y0059685D01*
X0015379Y0060866D01*
X0013835Y0061505D01*
X0012165Y0061505D01*
X0010621Y0060866D01*
X0009439Y0059685D01*
X0008800Y0058141D01*
X0008800Y0051270D01*
X0009439Y0049726D01*
X0010621Y0048545D01*
X0012165Y0047906D01*
X0013835Y0047906D01*
X0015379Y0048545D01*
X0016561Y0049726D01*
X0016648Y0049938D01*
X0030900Y0035686D01*
X0032130Y0034456D01*
X0037298Y0034456D01*
X0037298Y0032450D01*
X0037993Y0030771D01*
X0037531Y0031888D02*
X0007600Y0031888D01*
X0007600Y0033486D02*
X0037298Y0033486D01*
X0037298Y0038655D02*
X0033870Y0038655D01*
X0024390Y0048135D01*
X0025379Y0048545D01*
X0026561Y0049726D01*
X0026619Y0049867D01*
X0033600Y0042886D01*
X0034830Y0041656D01*
X0037899Y0041656D01*
X0037298Y0040205D01*
X0037298Y0038655D01*
X0037298Y0039880D02*
X0032645Y0039880D01*
X0031047Y0041479D02*
X0037825Y0041479D01*
X0033408Y0043077D02*
X0029448Y0043077D01*
X0027850Y0044676D02*
X0031810Y0044676D01*
X0030211Y0046274D02*
X0026251Y0046274D01*
X0024653Y0047873D02*
X0028613Y0047873D01*
X0027014Y0049471D02*
X0026305Y0049471D01*
X0028159Y0054267D02*
X0028800Y0054267D01*
X0028800Y0055865D02*
X0027200Y0055865D01*
X0027200Y0057464D02*
X0028800Y0057464D01*
X0029182Y0059062D02*
X0026818Y0059062D01*
X0025584Y0060661D02*
X0030416Y0060661D01*
X0035584Y0060661D02*
X0040416Y0060661D01*
X0039182Y0059062D02*
X0036818Y0059062D01*
X0037200Y0057464D02*
X0038800Y0057464D01*
X0038800Y0055865D02*
X0037200Y0055865D01*
X0037200Y0054267D02*
X0038800Y0054267D01*
X0038800Y0052668D02*
X0037200Y0052668D01*
X0037117Y0051070D02*
X0038883Y0051070D01*
X0039695Y0049471D02*
X0036305Y0049471D01*
X0034553Y0047873D02*
X0057000Y0047873D01*
X0057000Y0049471D02*
X0056305Y0049471D01*
X0057000Y0046274D02*
X0036151Y0046274D01*
X0028304Y0038282D02*
X0007600Y0038282D01*
X0007600Y0039880D02*
X0026705Y0039880D01*
X0025107Y0041479D02*
X0007600Y0041479D01*
X0007600Y0043077D02*
X0023508Y0043077D01*
X0021910Y0044676D02*
X0007600Y0044676D01*
X0007600Y0046274D02*
X0020311Y0046274D01*
X0018713Y0047873D02*
X0007600Y0047873D01*
X0007600Y0049471D02*
X0009695Y0049471D01*
X0008883Y0051070D02*
X0007600Y0051070D01*
X0007600Y0052668D02*
X0008800Y0052668D01*
X0008800Y0054267D02*
X0007600Y0054267D01*
X0007600Y0055865D02*
X0008800Y0055865D01*
X0008800Y0057464D02*
X0007600Y0057464D01*
X0007600Y0059062D02*
X0009182Y0059062D01*
X0010416Y0060661D02*
X0007600Y0060661D01*
X0007600Y0062259D02*
X0038998Y0062259D01*
X0038998Y0063858D02*
X0007600Y0063858D01*
X0007600Y0065456D02*
X0038998Y0065456D01*
X0039118Y0067055D02*
X0007600Y0067055D01*
X0007600Y0068653D02*
X0044282Y0068653D01*
X0042684Y0070252D02*
X0031742Y0070252D01*
X0034384Y0071598D02*
X0034384Y0071598D01*
X0034636Y0071850D02*
X0041085Y0071850D01*
X0040800Y0073449D02*
X0036235Y0073449D01*
X0037748Y0075047D02*
X0040800Y0075047D01*
X0038841Y0076646D02*
X0038562Y0076646D01*
X0047002Y0065456D02*
X0047479Y0065456D01*
X0047002Y0063858D02*
X0049078Y0063858D01*
X0050676Y0062259D02*
X0047002Y0062259D01*
X0045584Y0060661D02*
X0050416Y0060661D01*
X0049182Y0059062D02*
X0046818Y0059062D01*
X0047200Y0057464D02*
X0048800Y0057464D01*
X0048800Y0055865D02*
X0047200Y0055865D01*
X0047200Y0054267D02*
X0048800Y0054267D01*
X0048800Y0052668D02*
X0047200Y0052668D01*
X0047117Y0051070D02*
X0048883Y0051070D01*
X0049695Y0049471D02*
X0046305Y0049471D01*
X0046300Y0044676D02*
X0057000Y0044676D01*
X0057000Y0043077D02*
X0054546Y0043077D01*
X0055907Y0041479D02*
X0057000Y0041479D01*
X0057000Y0039880D02*
X0056435Y0039880D01*
X0056435Y0038282D02*
X0057104Y0038282D01*
X0057298Y0036683D02*
X0056435Y0036683D01*
X0056435Y0035085D02*
X0057298Y0035085D01*
X0057298Y0033486D02*
X0056435Y0033486D01*
X0056202Y0031888D02*
X0057531Y0031888D01*
X0058475Y0030289D02*
X0055257Y0030289D01*
X0048475Y0030289D02*
X0045257Y0030289D01*
X0046202Y0031888D02*
X0047531Y0031888D01*
X0047298Y0033486D02*
X0046435Y0033486D01*
X0046435Y0035085D02*
X0047298Y0035085D01*
X0047298Y0036683D02*
X0046435Y0036683D01*
X0046435Y0038282D02*
X0046754Y0038282D01*
X0047898Y0043077D02*
X0049186Y0043077D01*
X0061200Y0044676D02*
X0066900Y0044676D01*
X0066900Y0046274D02*
X0061200Y0046274D01*
X0061200Y0047873D02*
X0066900Y0047873D01*
X0066900Y0049471D02*
X0066305Y0049471D01*
X0071100Y0047873D02*
X0090397Y0047873D01*
X0089695Y0049471D02*
X0086305Y0049471D01*
X0086561Y0049726D02*
X0087200Y0051270D01*
X0087200Y0058141D01*
X0086561Y0059685D01*
X0085379Y0060866D01*
X0083835Y0061505D01*
X0082165Y0061505D01*
X0080621Y0060866D01*
X0079439Y0059685D01*
X0078800Y0058141D01*
X0078800Y0051270D01*
X0079439Y0049726D01*
X0080621Y0048545D01*
X0082165Y0047906D01*
X0083835Y0047906D01*
X0085379Y0048545D01*
X0086561Y0049726D01*
X0087117Y0051070D02*
X0088883Y0051070D01*
X0088800Y0052668D02*
X0087200Y0052668D01*
X0087200Y0054267D02*
X0088800Y0054267D01*
X0088800Y0055865D02*
X0087200Y0055865D01*
X0087200Y0057464D02*
X0088800Y0057464D01*
X0089182Y0059062D02*
X0086818Y0059062D01*
X0085584Y0060661D02*
X0090416Y0060661D01*
X0099000Y0060661D02*
X0100416Y0060661D01*
X0100621Y0060866D02*
X0099439Y0059685D01*
X0099000Y0058624D01*
X0099000Y0062025D01*
X0099936Y0061090D01*
X0101100Y0061090D01*
X0101100Y0061065D01*
X0100621Y0060866D01*
X0099182Y0059062D02*
X0099000Y0059062D01*
X0105584Y0060661D02*
X0110416Y0060661D01*
X0109182Y0059062D02*
X0106818Y0059062D01*
X0107200Y0057464D02*
X0108800Y0057464D01*
X0108800Y0055865D02*
X0107200Y0055865D01*
X0107200Y0054267D02*
X0108800Y0054267D01*
X0108800Y0052668D02*
X0107200Y0052668D01*
X0107117Y0051070D02*
X0108883Y0051070D01*
X0109695Y0049471D02*
X0106305Y0049471D01*
X0109049Y0046274D02*
X0099000Y0046274D01*
X0099000Y0044676D02*
X0107450Y0044676D01*
X0105852Y0043077D02*
X0104546Y0043077D01*
X0099186Y0043077D02*
X0099000Y0043077D01*
X0094800Y0043077D02*
X0094546Y0043077D01*
X0094454Y0043169D02*
X0092775Y0043865D01*
X0092329Y0043865D01*
X0094800Y0046336D01*
X0094800Y0042823D01*
X0094454Y0043169D01*
X0094800Y0044676D02*
X0093140Y0044676D01*
X0094739Y0046274D02*
X0094800Y0046274D01*
X0099000Y0047873D02*
X0110550Y0047873D01*
X0107298Y0038282D02*
X0106996Y0038282D01*
X0107298Y0036683D02*
X0106435Y0036683D01*
X0106435Y0035085D02*
X0107298Y0035085D01*
X0107298Y0033486D02*
X0106435Y0033486D01*
X0106202Y0031888D02*
X0107531Y0031888D01*
X0108475Y0030289D02*
X0105257Y0030289D01*
X0098475Y0030289D02*
X0095257Y0030289D01*
X0096202Y0031888D02*
X0097531Y0031888D01*
X0097298Y0033486D02*
X0096435Y0033486D01*
X0096435Y0035085D02*
X0097298Y0035085D01*
X0097298Y0036683D02*
X0096435Y0036683D01*
X0096646Y0038282D02*
X0097298Y0038282D01*
X0088799Y0046274D02*
X0071100Y0046274D01*
X0071100Y0044676D02*
X0087200Y0044676D01*
X0085602Y0043077D02*
X0084546Y0043077D01*
X0086746Y0038282D02*
X0087298Y0038282D01*
X0087298Y0036683D02*
X0086435Y0036683D01*
X0086435Y0035085D02*
X0087298Y0035085D01*
X0087298Y0033486D02*
X0086435Y0033486D01*
X0086202Y0031888D02*
X0087531Y0031888D01*
X0088475Y0030289D02*
X0085257Y0030289D01*
X0078475Y0030289D02*
X0075257Y0030289D01*
X0076202Y0031888D02*
X0077531Y0031888D01*
X0077298Y0033486D02*
X0076435Y0033486D01*
X0076435Y0035085D02*
X0077298Y0035085D01*
X0077298Y0036683D02*
X0076435Y0036683D01*
X0076435Y0038282D02*
X0077298Y0038282D01*
X0077298Y0039880D02*
X0076435Y0039880D01*
X0075907Y0041479D02*
X0077825Y0041479D01*
X0079186Y0043077D02*
X0074546Y0043077D01*
X0076305Y0049471D02*
X0079695Y0049471D01*
X0078883Y0051070D02*
X0077117Y0051070D01*
X0077200Y0052668D02*
X0078800Y0052668D01*
X0078800Y0054267D02*
X0077200Y0054267D01*
X0077200Y0055865D02*
X0078800Y0055865D01*
X0078800Y0057464D02*
X0077200Y0057464D01*
X0076818Y0059062D02*
X0079182Y0059062D01*
X0080416Y0060661D02*
X0075584Y0060661D01*
X0066900Y0043077D02*
X0064546Y0043077D01*
X0065907Y0041479D02*
X0066900Y0041479D01*
X0066900Y0039880D02*
X0066435Y0039880D01*
X0066435Y0038282D02*
X0067004Y0038282D01*
X0067298Y0036683D02*
X0066435Y0036683D01*
X0066435Y0035085D02*
X0067298Y0035085D01*
X0067298Y0033486D02*
X0066435Y0033486D01*
X0066202Y0031888D02*
X0067531Y0031888D01*
X0068475Y0030289D02*
X0065257Y0030289D01*
X0031501Y0035085D02*
X0007600Y0035085D01*
X0007600Y0036683D02*
X0029902Y0036683D01*
X0017114Y0049471D02*
X0016305Y0049471D01*
X0018259Y0054267D02*
X0018800Y0054267D01*
X0018800Y0055865D02*
X0017200Y0055865D01*
X0017200Y0057464D02*
X0018800Y0057464D01*
X0019182Y0059062D02*
X0016818Y0059062D01*
X0015584Y0060661D02*
X0020416Y0060661D01*
X0021112Y0069496D02*
X0021112Y0069496D01*
X0019628Y0070252D02*
X0007600Y0070252D01*
X0007600Y0071850D02*
X0016734Y0071850D01*
X0016986Y0071598D02*
X0016986Y0071598D01*
X0015135Y0073449D02*
X0007600Y0073449D01*
X0007600Y0075047D02*
X0013622Y0075047D01*
X0013712Y0074872D02*
X0013712Y0074872D01*
X0012808Y0076646D02*
X0007600Y0076646D01*
X0007600Y0078244D02*
X0011993Y0078244D01*
X0011609Y0078998D02*
X0011609Y0078998D01*
X0011476Y0079843D02*
X0007600Y0079843D01*
X0007600Y0081441D02*
X0011222Y0081441D01*
X0010969Y0083040D02*
X0007600Y0083040D01*
X0007600Y0084639D02*
X0011054Y0084639D01*
X0011307Y0086237D02*
X0007600Y0086237D01*
X0007600Y0087836D02*
X0011560Y0087836D01*
X0011609Y0088145D02*
X0011609Y0088145D01*
X0012266Y0089434D02*
X0007600Y0089434D01*
X0007600Y0091033D02*
X0013081Y0091033D01*
X0014072Y0092631D02*
X0007600Y0092631D01*
X0007600Y0094230D02*
X0015670Y0094230D01*
X0017541Y0095828D02*
X0007600Y0095828D01*
X0007600Y0097427D02*
X0020678Y0097427D01*
X0022498Y0099025D02*
X0015167Y0099025D01*
X0015167Y0098641D02*
X0014230Y0097704D01*
X0009322Y0097704D01*
X0008384Y0098641D01*
X0008384Y0104770D01*
X0009322Y0105707D01*
X0009750Y0105707D01*
X0009750Y0109416D01*
X0009439Y0109726D01*
X0008800Y0111270D01*
X0008800Y0118141D01*
X0009439Y0119685D01*
X0010621Y0120866D01*
X0012165Y0121505D01*
X0013835Y0121505D01*
X0015379Y0120866D01*
X0016561Y0119685D01*
X0017200Y0118141D01*
X0017200Y0111270D01*
X0016561Y0109726D01*
X0015379Y0108545D01*
X0013950Y0107953D01*
X0013950Y0105707D01*
X0014230Y0105707D01*
X0015167Y0104770D01*
X0015167Y0098641D01*
X0015167Y0100624D02*
X0022498Y0100624D01*
X0022498Y0102222D02*
X0015167Y0102222D01*
X0015167Y0103821D02*
X0022498Y0103821D01*
X0022990Y0105419D02*
X0014518Y0105419D01*
X0013950Y0107018D02*
X0024150Y0107018D01*
X0020550Y0108616D02*
X0015450Y0108616D01*
X0016763Y0110215D02*
X0019237Y0110215D01*
X0018800Y0111813D02*
X0017200Y0111813D01*
X0017200Y0113412D02*
X0018800Y0113412D01*
X0018800Y0115010D02*
X0017200Y0115010D01*
X0017200Y0116609D02*
X0018800Y0116609D01*
X0018827Y0118207D02*
X0017173Y0118207D01*
X0016439Y0119806D02*
X0019561Y0119806D01*
X0021920Y0121404D02*
X0014080Y0121404D01*
X0015085Y0123003D02*
X0007600Y0123003D01*
X0007600Y0124601D02*
X0015085Y0124601D01*
X0015085Y0126200D02*
X0007600Y0126200D01*
X0007600Y0127798D02*
X0015085Y0127798D01*
X0015948Y0129397D02*
X0007600Y0129397D01*
X0007600Y0130995D02*
X0015967Y0130995D01*
X0015085Y0132594D02*
X0007600Y0132594D01*
X0007600Y0134192D02*
X0015085Y0134192D01*
X0015085Y0135791D02*
X0007600Y0135791D01*
X0007600Y0137389D02*
X0015085Y0137389D01*
X0019821Y0138988D02*
X0007600Y0138988D01*
X0007600Y0140586D02*
X0021420Y0140586D01*
X0023018Y0142185D02*
X0007600Y0142185D01*
X0007600Y0143783D02*
X0024617Y0143783D01*
X0026215Y0145382D02*
X0007600Y0145382D01*
X0007600Y0146980D02*
X0027814Y0146980D01*
X0029412Y0148579D02*
X0007600Y0148579D01*
X0007600Y0150177D02*
X0031011Y0150177D01*
X0032609Y0151776D02*
X0007600Y0151776D01*
X0006000Y0156572D02*
X0153638Y0156572D01*
X0153638Y0158170D02*
X0006000Y0158170D01*
X0006000Y0159769D02*
X0153638Y0159769D01*
X0153638Y0161367D02*
X0006000Y0161367D01*
X0006000Y0162966D02*
X0153638Y0162966D01*
X0153638Y0164564D02*
X0006000Y0164564D01*
X0006000Y0166163D02*
X0153638Y0166163D01*
X0153638Y0167761D02*
X0006000Y0167761D01*
X0006000Y0169360D02*
X0153638Y0169360D01*
X0153638Y0170958D02*
X0006000Y0170958D01*
X0006000Y0172557D02*
X0153638Y0172557D01*
X0146132Y0121404D02*
X0144080Y0121404D01*
X0145616Y0068653D02*
X0146132Y0068653D01*
X0146132Y0067055D02*
X0145616Y0067055D01*
X0145616Y0065456D02*
X0146132Y0065456D01*
X0146132Y0063858D02*
X0145616Y0063858D01*
X0145234Y0062259D02*
X0146132Y0062259D01*
X0146132Y0060661D02*
X0145584Y0060661D01*
X0140250Y0060661D02*
X0135584Y0060661D01*
X0136818Y0059062D02*
X0139182Y0059062D01*
X0138800Y0057464D02*
X0137200Y0057464D01*
X0137200Y0055865D02*
X0138800Y0055865D01*
X0138800Y0054267D02*
X0137200Y0054267D01*
X0137200Y0052668D02*
X0138800Y0052668D01*
X0138883Y0051070D02*
X0137117Y0051070D01*
X0136305Y0049471D02*
X0139695Y0049471D01*
X0146132Y0047873D02*
X0127387Y0047873D01*
X0128986Y0049471D02*
X0129695Y0049471D01*
X0125789Y0046274D02*
X0146132Y0046274D01*
X0146132Y0044676D02*
X0124190Y0044676D01*
X0122592Y0043077D02*
X0146132Y0043077D01*
X0146132Y0041479D02*
X0120993Y0041479D01*
X0127200Y0054267D02*
X0127841Y0054267D01*
X0127200Y0055865D02*
X0128800Y0055865D01*
X0128800Y0057464D02*
X0127200Y0057464D01*
X0126818Y0059062D02*
X0129182Y0059062D01*
X0146132Y0027092D02*
X0007600Y0027092D01*
X0007600Y0025494D02*
X0146132Y0025494D01*
X0146132Y0023895D02*
X0007600Y0023895D01*
X0007600Y0022297D02*
X0146132Y0022297D01*
X0146132Y0020698D02*
X0007600Y0020698D01*
X0007600Y0019100D02*
X0146132Y0019100D01*
X0146132Y0017501D02*
X0007600Y0017501D01*
X0007600Y0015903D02*
X0146132Y0015903D01*
X0099695Y0049471D02*
X0099000Y0049471D01*
X0036750Y0119227D02*
X0036561Y0119685D01*
X0035379Y0120866D01*
X0034319Y0121305D01*
X0038133Y0125119D01*
X0039278Y0123974D01*
X0040460Y0123485D01*
X0036750Y0119775D01*
X0036750Y0119227D01*
X0036780Y0119806D02*
X0036439Y0119806D01*
X0038379Y0121404D02*
X0034419Y0121404D01*
X0036017Y0123003D02*
X0039977Y0123003D01*
X0038651Y0124601D02*
X0037616Y0124601D01*
X0034873Y0127798D02*
X0032713Y0127798D01*
X0033274Y0126200D02*
X0031114Y0126200D01*
X0031676Y0124601D02*
X0029516Y0124601D01*
X0030077Y0123003D02*
X0028915Y0123003D01*
X0028479Y0121404D02*
X0024080Y0121404D01*
X0026439Y0119806D02*
X0026880Y0119806D01*
X0028212Y0129237D02*
X0027978Y0129471D01*
X0022715Y0129471D01*
X0022000Y0128756D01*
X0021285Y0129471D01*
X0020800Y0129471D01*
X0020800Y0130940D01*
X0021285Y0130940D01*
X0022000Y0131655D01*
X0022715Y0130940D01*
X0027978Y0130940D01*
X0028915Y0131877D01*
X0028915Y0133006D01*
X0031980Y0133006D01*
X0028212Y0129237D01*
X0028371Y0129397D02*
X0028052Y0129397D01*
X0028033Y0130995D02*
X0029970Y0130995D01*
X0028915Y0132594D02*
X0031569Y0132594D01*
X0034311Y0129397D02*
X0036471Y0129397D01*
X0035910Y0130995D02*
X0037298Y0130995D01*
X0032130Y0137205D02*
X0028915Y0137205D01*
X0028915Y0137534D01*
X0027978Y0138471D01*
X0025527Y0138471D01*
X0037511Y0150456D01*
X0042033Y0150456D01*
X0041250Y0149673D01*
X0041250Y0146325D01*
X0032130Y0137205D01*
X0032314Y0137389D02*
X0028915Y0137389D01*
X0027642Y0140586D02*
X0035511Y0140586D01*
X0033913Y0138988D02*
X0026044Y0138988D01*
X0029241Y0142185D02*
X0037110Y0142185D01*
X0038708Y0143783D02*
X0030839Y0143783D01*
X0032438Y0145382D02*
X0040307Y0145382D01*
X0041250Y0146980D02*
X0034036Y0146980D01*
X0035635Y0148579D02*
X0041250Y0148579D01*
X0041754Y0150177D02*
X0037233Y0150177D01*
X0022660Y0130995D02*
X0021340Y0130995D01*
X0021359Y0129397D02*
X0022641Y0129397D01*
X0011920Y0121404D02*
X0007600Y0121404D01*
X0007600Y0119806D02*
X0009561Y0119806D01*
X0008827Y0118207D02*
X0007600Y0118207D01*
X0007600Y0116609D02*
X0008800Y0116609D01*
X0008800Y0115010D02*
X0007600Y0115010D01*
X0007600Y0113412D02*
X0008800Y0113412D01*
X0008800Y0111813D02*
X0007600Y0111813D01*
X0007600Y0110215D02*
X0009237Y0110215D01*
X0009750Y0108616D02*
X0007600Y0108616D01*
X0007600Y0107018D02*
X0009750Y0107018D01*
X0009034Y0105419D02*
X0007600Y0105419D01*
X0007600Y0103821D02*
X0008384Y0103821D01*
X0008384Y0102222D02*
X0007600Y0102222D01*
X0007600Y0100624D02*
X0008384Y0100624D01*
X0008384Y0099025D02*
X0007600Y0099025D01*
X0025685Y0068772D02*
X0025685Y0068772D01*
M02*
